<svg xmlns="http://www.w3.org/2000/svg" xmlns:xlink="http://www.w3.org/1999/xlink" viewBox="0 0 1280 654.3">
  <defs>
    <style>
      .cls-1 {
        isolation: isolate;
      }

      .cls-2, .cls-8 {
        fill: #808184;
      }

      .cls-3, .cls-33 {
        fill: #929497;
      }

      .cls-3 {
        stroke: #3a6db4;
        stroke-width: 2.43px;
      }

      .cls-10, .cls-11, .cls-12, .cls-13, .cls-14, .cls-15, .cls-17, .cls-18, .cls-21, .cls-22, .cls-23, .cls-24, .cls-25, .cls-26, .cls-27, .cls-28, .cls-29, .cls-3, .cls-30, .cls-31, .cls-32, .cls-33, .cls-34, .cls-35, .cls-36, .cls-37, .cls-38, .cls-40, .cls-46, .cls-5, .cls-6, .cls-7, .cls-8, .cls-9 {
        stroke-miterlimit: 10;
      }

      .cls-4 {
        fill: #6d6e70;
      }

      .cls-10, .cls-11, .cls-13, .cls-14, .cls-29, .cls-5, .cls-6 {
        fill: none;
      }

      .cls-12, .cls-15, .cls-5 {
        stroke: #000;
      }

      .cls-14, .cls-30, .cls-5 {
        stroke-width: 1.22px;
      }

      .cls-6, .cls-7, .cls-8, .cls-9 {
        stroke: #ec1c24;
      }

      .cls-11, .cls-33, .cls-40, .cls-6, .cls-7, .cls-8, .cls-9 {
        stroke-width: 0.41px;
      }

      .cls-10, .cls-11, .cls-14, .cls-6, .cls-7, .cls-8, .cls-9 {
        stroke-dasharray: 4.86;
      }

      .cls-15, .cls-27, .cls-7 {
        fill: #58595b;
      }

      .cls-30, .cls-39, .cls-7, .cls-9 {
        mix-blend-mode: darken;
      }

      .cls-12, .cls-40, .cls-52, .cls-9 {
        fill: #404041;
      }

      .cls-10, .cls-11, .cls-13, .cls-14, .cls-17, .cls-18, .cls-21, .cls-22, .cls-23, .cls-24, .cls-25, .cls-26, .cls-27, .cls-28, .cls-29, .cls-30, .cls-31, .cls-32, .cls-33, .cls-34, .cls-35, .cls-36, .cls-37, .cls-38 {
        stroke: #231f20;
      }

      .cls-10, .cls-12, .cls-15, .cls-17, .cls-18, .cls-21, .cls-22, .cls-23, .cls-24, .cls-25, .cls-26, .cls-27, .cls-28, .cls-29, .cls-31, .cls-34, .cls-35, .cls-36, .cls-37, .cls-38, .cls-46 {
        stroke-width: 0.81px;
      }

      .cls-13, .cls-32 {
        stroke-width: 3.45px;
      }

      .cls-16, .cls-39 {
        fill: #231f20;
      }

      .cls-17 {
        fill: url(#Pecan);
      }

      .cls-18 {
        fill: url(#Pecan-2);
      }

      .cls-19 {
        fill: #91d6e6;
      }

      .cls-20, .cls-46, .cls-51 {
        fill: #be1e2d;
      }

      .cls-21 {
        fill: url(#Pecan-3);
      }

      .cls-22 {
        fill: url(#Pecan-4);
      }

      .cls-23 {
        fill: #435d7b;
      }

      .cls-24 {
        fill: url(#Cast_Iron);
      }

      .cls-25 {
        fill: #979397;
      }

      .cls-26 {
        fill: url(#Cast_Iron-2);
      }

      .cls-28 {
        fill: url(#Pecan-5);
      }

      .cls-30 {
        fill: #2e3191;
      }

      .cls-31 {
        fill: url(#Cast_Iron-3);
      }

      .cls-32 {
        fill: #bbbdbf;
      }

      .cls-34 {
        fill: url(#Pecan-6);
      }

      .cls-35 {
        fill: url(#Pecan-7);
      }

      .cls-36 {
        fill: url(#Pecan-8);
      }

      .cls-37 {
        fill: #ee4036;
      }

      .cls-38, .cls-43, .cls-45, .cls-47 {
        fill: #fff;
      }

      .cls-38 {
        opacity: 0.68;
      }

      .cls-39 {
        opacity: 0.4;
      }

      .cls-40 {
        stroke: #f1f1f2;
      }

      .cls-41 {
        fill: #fff100;
      }

      .cls-42 {
        fill: #e6e7e8;
      }

      .cls-44, .cls-53 {
        fill: #1b75bb;
      }

      .cls-45 {
        font-size: 37.45px;
      }

      .cls-45, .cls-47 {
        font-family: OpenSans-Regular, Open Sans;
      }

      .cls-46 {
        stroke: #fff;
      }

      .cls-47 {
        font-size: 41.39px;
      }

      .cls-48 {
        fill: #d1af2b;
      }

      .cls-49 {
        fill: #f1f1f2;
      }

      .cls-50 {
        fill: #ec1c24;
      }

      .cls-51, .cls-53, .cls-54 {
        opacity: 0.5;
      }

      .cls-55 {
        opacity: 0.29;
      }
    </style>
    <linearGradient id="Pecan" x1="328.22" y1="351.41" x2="331.44" y2="351.41" gradientUnits="userSpaceOnUse">
      <stop offset="0.01" stop-color="#aa7541"/>
      <stop offset="0.19" stop-color="#845636"/>
      <stop offset="0.34" stop-color="#ae7640"/>
      <stop offset="0.49" stop-color="#aa7541"/>
      <stop offset="0.63" stop-color="#845636"/>
      <stop offset="0.97" stop-color="#ae7640"/>
    </linearGradient>
    <linearGradient id="Pecan-2" data-name="Pecan" x1="380.34" y1="306.18" x2="480.63" y2="306.18" gradientTransform="translate(124.3 736.66) rotate(-90)" xlink:href="#Pecan"/>
    <linearGradient id="Pecan-3" data-name="Pecan" x1="606.58" y1="443.11" x2="791.83" y2="443.11" xlink:href="#Pecan"/>
    <linearGradient id="Pecan-4" data-name="Pecan" x1="791.83" y1="445.47" x2="827.44" y2="445.47" xlink:href="#Pecan"/>
    <linearGradient id="Cast_Iron" data-name="Cast Iron" x1="713.91" y1="434.09" x2="783.85" y2="434.09" gradientUnits="userSpaceOnUse">
      <stop offset="0.01" stop-color="#84868c"/>
      <stop offset="0.53" stop-color="#979798"/>
      <stop offset="1" stop-color="#5c5c62"/>
    </linearGradient>
    <linearGradient id="Cast_Iron-2" x1="719.95" y1="420.44" x2="777.56" y2="420.44" xlink:href="#Cast_Iron"/>
    <linearGradient id="Pecan-5" data-name="Pecan" x1="406.72" y1="177.36" x2="464.89" y2="177.36" xlink:href="#Pecan"/>
    <linearGradient id="Cast_Iron-3" x1="411.93" y1="177.27" x2="459.68" y2="177.27" xlink:href="#Cast_Iron"/>
    <linearGradient id="Pecan-6" data-name="Pecan" x1="764.9" y1="229.4" x2="863.01" y2="229.4" xlink:href="#Pecan"/>
    <linearGradient id="Pecan-7" data-name="Pecan" x1="715.84" y1="229.4" x2="764.9" y2="229.4" xlink:href="#Pecan"/>
    <linearGradient id="Pecan-8" data-name="Pecan" x1="863.01" y1="229.4" x2="912.07" y2="229.4" xlink:href="#Pecan"/>
  </defs>
  <g class="cls-1">
    <g id="Main">
      <g>
        <rect x="881.71" y="508.14" width="130.4" height="6.48"/>
        <path class="cls-2" d="M1011.3,509v4.86H882.52V509H1011.3m1.62-1.62h-132v8.1h132v-8.1Z"/>
      </g>
      <g>
        <rect x="301.65" y="508.14" width="130.4" height="6.48"/>
        <path class="cls-2" d="M431.24,509v4.86H302.46V509H431.24m1.62-1.62h-132v8.1h132v-8.1Z"/>
      </g>
      <g>
        <rect x="881.71" y="141.78" width="130.4" height="6.48"/>
        <path class="cls-2" d="M1011.3,142.59v4.85H882.52v-4.85H1011.3m1.62-1.62h-132v8.09h132V141Z"/>
      </g>
      <g>
        <rect x="301.65" y="141.78" width="130.4" height="6.48"/>
        <path class="cls-2" d="M431.24,142.59v4.85H302.46v-4.85H431.24m1.62-1.62h-132v8.09h132V141Z"/>
      </g>
      <path class="cls-3" d="M1216.39,492.73c-12.91,13-41.73,14.67-41.73,14.67H130s-19.22.52-25.6,0c-14.65-1.2-41.88-6.89-55.21-20.22C26.93,465,28.94,381.73,28.94,381.73V263.15s-2.06-74.08,18.19-94.33c13.33-13.33,42.1-19,57.23-20.21,6-.47,23.92,0,23.92,0H1174.66s29.87-.22,42.79,12.8C1249,193.25,1246.59,328,1246.59,328S1248,460.89,1216.39,492.73Z"/>
      <polygon class="cls-4" points="1032.43 503.02 1062.82 471.69 1062.82 377.36 1041.93 354.8 880.86 354.8 874.66 385.12 332.26 385.12 332.26 301.23 1188.81 301.23 1189.01 348.41 1189.31 501.99 1032.43 503.02"/>
      <path class="cls-5" d="M1176.11,153.49h-1055s-52.55,3.16-52.55,17l.07-.48V486.05c0,13.81,52.55,17,52.55,17h1055"/>
      <line class="cls-6" x1="172.75" y1="153.49" x2="172.75" y2="503.02"/>
      <polyline class="cls-6" points="214.52 153.49 214.52 439.68 171.57 503.02"/>
      <path class="cls-7" d="M322.25,503V338H311.41V153.49h-190s-52.56,3.16-52.56,17L69,170V486.05c0,13.81,52.56,17,52.56,17Z"/>
      <rect class="cls-7" x="1065.51" y="397.23" width="123.64" height="42.45"/>
      <rect class="cls-8" x="282.99" y="301.23" width="49.27" height="84.8"/>
      <polyline class="cls-6" points="206 455.35 294.11 455.35 294.11 397.23 214.09 397.23"/>
      <polygon class="cls-9" points="1062.82 439.68 1189.15 439.68 1189.15 507.63 1042.25 507.63 1042.25 492.89 1062.82 471.69 1062.82 439.68"/>
      <polygon class="cls-10" points="1032.43 503.02 1062.82 471.69 1062.82 377.36 1041.93 354.8 880.86 354.8 874.66 385.12 214.52 385.12 214.52 301.23 1188.81 301.23 1189.01 348.41 1189.31 501.99 1032.43 503.02"/>
      <rect class="cls-11" x="896.49" y="386.38" width="100.85" height="118.26"/>
      <path class="cls-12" d="M1192,504.64c8.53-2.1,18.28-5.72,24.42-11.91C1248,460.89,1246.59,328,1246.59,328s2.45-134.75-29.14-166.59c-12.92-13-42.79-12.8-42.79-12.8h-9.09V312.44l23.75,25.81v167Z"/>
      <rect class="cls-11" x="896.49" y="153.49" width="100.85" height="112.85"/>
      <rect class="cls-11" x="314.36" y="386.38" width="93.5" height="118.26"/>
      <rect class="cls-11" x="314.36" y="150.36" width="93.5" height="150.87"/>
      <polyline class="cls-13" points="384.88 301.02 314.36 301.02 314.36 155.77 604.49 155.77 604.49 301.02 475.21 301.02"/>
      <polyline class="cls-13" points="604.49 385.12 604.49 500.23 325.29 500.23 325.29 385.12"/>
      <polyline class="cls-13" points="604.49 385.12 604.49 500.23 517.53 500.23 517.53 385.12"/>
      <line class="cls-13" x1="1041.38" y1="360.44" x2="1041.38" y2="503.02"/>
      <rect class="cls-14" x="475.21" y="155.77" width="126.01" height="145.46"/>
      <rect class="cls-15" x="1149.35" y="153.49" width="31.61" height="139.86"/>
      <path class="cls-16" d="M1178.63,223.54A36.74,36.74,0,0,0,1167,198.43a34.31,34.31,0,0,0-25.4-9.28c-19.35,1.06-34.18,18.24-33.07,38.27a36.87,36.87,0,0,0,11.68,25.13,34.39,34.39,0,0,0,23.49,9.33c.64,0,1.28,0,1.91,0,18.67-1,33.13-17.06,33.13-36.19C1178.69,225,1178.67,224.25,1178.63,223.54Zm-37-32c.61,0,1.2-.06,1.79-.06a31.54,31.54,0,0,1,6.22.62l-8.34,26a7.05,7.05,0,0,0-6.44,6.28l-24,1.69C1110.48,207.89,1124.06,192.55,1141.67,191.58Zm3.77,67.82a31.87,31.87,0,0,1-23.62-8.63A34.37,34.37,0,0,1,1111,228.5l24.09-1.71a7,7,0,0,0,6.8,5.32,5.47,5.47,0,0,0,1-.08L1158,256A31.16,31.16,0,0,1,1145.44,259.4Zm14.66-4.55-14.82-23.61a7,7,0,0,0-1.46-12.91l8.23-25.62a32.29,32.29,0,0,1,13.24,7.5,34.36,34.36,0,0,1,7.73,10.61,35.17,35.17,0,0,1,3.18,12.85A34.15,34.15,0,0,1,1160.1,254.85Z"/>
      <rect class="cls-17" x="328.22" y="306.18" width="3.22" height="90.46"/>
      <rect class="cls-18" x="428.87" y="256.03" width="3.22" height="100.29" transform="translate(736.66 -124.3) rotate(90)"/>
      <rect class="cls-12" x="336.53" y="388.56" width="176.1" height="111.67"/>
      <rect class="cls-19" x="797.64" y="148.58" width="223.82" height="3.61"/>
      <rect class="cls-19" x="1054.39" y="148.61" width="121.72" height="3.59"/>
      <rect class="cls-19" x="649.34" y="148.58" width="139.18" height="3.61"/>
      <rect class="cls-19" x="104.36" y="148.61" width="116.16" height="3.68"/>
      <rect class="cls-20" x="177.95" y="508.08" width="116.16" height="4.88"/>
      <rect class="cls-20" x="1060.93" y="507.04" width="116.16" height="4.88"/>
      <rect class="cls-19" x="797.64" y="503.78" width="223.82" height="3.61"/>
      <rect class="cls-19" x="649.34" y="503.78" width="139.18" height="3.61"/>
      <rect class="cls-19" x="119.5" y="503.65" width="41.42" height="3.42"/>
    </g>
    <g id="Kitchen">
      <path class="cls-21" d="M623.59,386H774.82a17,17,0,0,1,17,17v97.14a0,0,0,0,1,0,0H606.58a0,0,0,0,1,0,0V403A17,17,0,0,1,623.59,386Z"/>
      <rect class="cls-22" x="791.83" y="390.75" width="35.61" height="109.43"/>
      <g>
        <rect class="cls-23" x="523.2" y="390.75" width="74.44" height="74.44"/>
        <rect class="cls-23" x="523.2" y="386.38" width="74.44" height="4.38"/>
      </g>
      <g>
        <rect class="cls-24" x="713.91" y="389.84" width="69.94" height="88.49" rx="26"/>
        <rect class="cls-25" x="717.94" y="393.61" width="61.64" height="53.65" rx="23.17"/>
        <rect class="cls-26" x="719.95" y="395.37" width="57.61" height="50.14" rx="21.65"/>
        <circle class="cls-25" cx="748.76" cy="418.24" r="4.51"/>
      </g>
    </g>
    <g id="Bath">
      <path class="cls-27" d="M341.83,157.29h45.9a0,0,0,0,1,0,0V203.9a14.17,14.17,0,0,1-14.17,14.17H356a14.17,14.17,0,0,1-14.17-14.17V157.29A0,0,0,0,1,341.83,157.29Z"/>
      <rect class="cls-28" x="406.72" y="159.16" width="58.17" height="36.38"/>
      <rect class="cls-29" x="341.83" y="157.41" width="45.9" height="17.96"/>
      <rect class="cls-30" x="476.76" y="162.52" width="117.28" height="121.54"/>
      <g>
        <rect class="cls-25" x="410.26" y="161.47" width="51.09" height="31.62" rx="13.65"/>
        <rect class="cls-31" x="411.93" y="162.5" width="47.75" height="29.55" rx="12.76"/>
        <circle class="cls-25" cx="435.8" cy="175.08" r="4.51"/>
      </g>
      <circle class="cls-25" cx="490.38" cy="175.08" r="4.51"/>
    </g>
    <g id="Bedroom">
      <rect class="cls-32" x="72.52" y="177.62" width="211.99" height="301.62"/>
      <rect class="cls-33" x="77.66" y="185.27" width="200.54" height="286.49" rx="20.61"/>
    </g>
    <g id="Seats">
      <g>
        <rect class="cls-34" x="764.9" y="157.77" width="98.12" height="143.25"/>
        <rect class="cls-35" x="715.84" y="157.77" width="49.06" height="143.25"/>
        <rect class="cls-36" x="863.01" y="157.77" width="49.06" height="143.25"/>
      </g>
      <g>
        <path class="cls-37" d="M1049.09,190.23h44.4a14.17,14.17,0,0,1,14.17,14.17v42a14.17,14.17,0,0,1-14.17,14.17h-44.4a0,0,0,0,1,0,0V190.23A0,0,0,0,1,1049.09,190.23Z"/>
        <rect class="cls-37" x="1024.28" y="190.23" width="24.81" height="70.36"/>
        <rect class="cls-38" x="1049.09" y="206.06" width="58.17" height="38.06"/>
        <rect class="cls-38" x="1024.28" y="206.06" width="24.81" height="38.06"/>
        <rect class="cls-39" x="1033.71" y="190.23" width="15.38" height="70.36"/>
      </g>
      <g>
        <path class="cls-37" d="M1067.11,380.94h39.75A14.17,14.17,0,0,1,1121,395.11v42a14.17,14.17,0,0,1-14.17,14.17h-39.75a0,0,0,0,1,0,0V380.94a0,0,0,0,1,0,0Z"/>
        <rect class="cls-37" x="1044.27" y="380.94" width="22.84" height="70.36"/>
        <rect class="cls-38" x="1067.11" y="396.77" width="53.55" height="38.06"/>
        <rect class="cls-38" x="1044.27" y="396.77" width="22.84" height="38.06"/>
        <rect class="cls-39" x="1052.95" y="380.94" width="14.16" height="70.36"/>
      </g>
      <g>
        <path class="cls-37" d="M916.29,230.18H959a14.17,14.17,0,0,1,14.17,14.17v42A14.17,14.17,0,0,1,959,300.54H916.29a0,0,0,0,1,0,0V230.18A0,0,0,0,1,916.29,230.18Z" transform="translate(1889.51 530.72) rotate(180)"/>
        <rect class="cls-37" x="973.22" y="230.18" width="24.11" height="70.36" transform="translate(1970.55 530.72) rotate(180)"/>
        <rect class="cls-38" x="916.29" y="246.51" width="56.93" height="38.06"/>
        <rect class="cls-38" x="973.22" y="246.51" width="24.11" height="38.06"/>
        <rect class="cls-39" x="973.22" y="230.18" width="14.95" height="70.36"/>
      </g>
      <g>
        <path class="cls-37" d="M940.41,354.66h42.76a14.17,14.17,0,0,1,14.17,14.17v42A14.17,14.17,0,0,1,983.16,425H940.41a0,0,0,0,1,0,0V354.66A0,0,0,0,1,940.41,354.66Z"/>
        <rect class="cls-37" x="916.29" y="354.66" width="24.11" height="70.36"/>
        <rect class="cls-38" x="940.41" y="371.14" width="56.93" height="38.06"/>
        <rect class="cls-38" x="916.29" y="371.14" width="24.11" height="38.06"/>
        <rect class="cls-39" x="925.14" y="354.66" width="14.95" height="70.36"/>
      </g>
      <g>
        <path class="cls-37" d="M940.41,428.56h42.76a14.17,14.17,0,0,1,14.17,14.17v42a14.17,14.17,0,0,1-14.17,14.17H940.41a0,0,0,0,1,0,0V428.56a0,0,0,0,1,0,0Z"/>
        <rect class="cls-37" x="916.29" y="428.56" width="24.11" height="70.36"/>
        <rect class="cls-38" x="940.41" y="444.9" width="56.93" height="38.06"/>
        <rect class="cls-38" x="916.29" y="444.9" width="24.11" height="38.06"/>
        <rect class="cls-39" x="925.14" y="428.32" width="14.95" height="70.36"/>
      </g>
      <g>
        <path class="cls-37" d="M653.43,156.26h42.76a14.17,14.17,0,0,1,14.17,14.17v42a14.17,14.17,0,0,1-14.17,14.17H653.43a0,0,0,0,1,0,0V156.26A0,0,0,0,1,653.43,156.26Z"/>
        <rect class="cls-37" x="629.31" y="156.26" width="24.11" height="70.36"/>
        <rect class="cls-38" x="653.43" y="172.74" width="56.93" height="38.06"/>
        <rect class="cls-38" x="629.31" y="172.74" width="24.11" height="38.06"/>
        <rect class="cls-39" x="638.16" y="156.26" width="14.95" height="70.36"/>
      </g>
      <g>
        <path class="cls-37" d="M653.43,230.16h42.76a14.17,14.17,0,0,1,14.17,14.17v42a14.17,14.17,0,0,1-14.17,14.17H653.43a0,0,0,0,1,0,0V230.16A0,0,0,0,1,653.43,230.16Z"/>
        <rect class="cls-37" x="629.31" y="230.16" width="24.11" height="70.36"/>
        <rect class="cls-38" x="653.43" y="246.5" width="56.93" height="38.06"/>
        <rect class="cls-38" x="629.31" y="246.5" width="24.11" height="38.06"/>
        <rect class="cls-39" x="638.16" y="229.92" width="14.95" height="70.36"/>
      </g>
      <g>
        <path class="cls-37" d="M916.29,156.28H959a14.17,14.17,0,0,1,14.17,14.17v42A14.17,14.17,0,0,1,959,226.64H916.29a0,0,0,0,1,0,0V156.28A0,0,0,0,1,916.29,156.28Z" transform="translate(1889.51 382.92) rotate(180)"/>
        <rect class="cls-37" x="973.22" y="156.28" width="24.11" height="70.36" transform="translate(1970.55 382.92) rotate(180)"/>
        <rect class="cls-38" x="916.29" y="172.76" width="56.93" height="38.06"/>
        <rect class="cls-38" x="973.22" y="172.76" width="24.11" height="38.06"/>
        <rect class="cls-39" x="973.22" y="156.28" width="14.95" height="70.36"/>
      </g>
    </g>
    <g id="Water">
      <g id="WaterHeater">
        <circle class="cls-40" cx="455.53" cy="588.15" r="44.53"/>
        <circle id="WaterHeaterStatus" class="cls-41" cx="455.53" cy="588.15" r="41.58"/>
        <g id="WaterHeaterButton">
          <g>
            <circle class="cls-42" cx="455.53" cy="588.15" r="36.77"/>
            <path class="cls-20" d="M455.53,551.38a36.77,36.77,0,1,0,36.77,36.77A36.81,36.81,0,0,0,455.53,551.38Zm0,69.6a32.83,32.83,0,1,1,32.83-32.83A32.87,32.87,0,0,1,455.53,621Z"/>
          </g>
          <path class="cls-20" d="M469.51,593.48c1.67,10.06-5.34,16.15-14.21,16.15s-14.81-6-13.75-16.15c1.19-11.2,13.75-26.8,13.75-26.8S467.69,582.52,469.51,593.48Z"/>
          <path class="cls-43" d="M455.53,605.54a1,1,0,0,1,0-2,8.93,8.93,0,0,0,8.92-8.92,1,1,0,0,1,2,0A11,11,0,0,1,455.53,605.54Z"/>
        </g>
      </g>
      <g id="WaterPump">
        <path class="cls-40" d="M667.05,543.62h116.5a2.54,2.54,0,0,1,2.54,2.54v84a2.54,2.54,0,0,1-2.54,2.54H667.05a44.53,44.53,0,0,1,0-89.06Z"/>
        <circle id="Water1Status" class="cls-41" cx="667.14" cy="588.15" r="41.58"/>
        <g id="WaterPumpButton">
          <g>
            <circle class="cls-42" cx="667.14" cy="588.15" r="36.77"/>
            <path class="cls-44" d="M667.14,551.38a36.77,36.77,0,1,0,36.77,36.77A36.81,36.81,0,0,0,667.14,551.38Zm0,69.6A32.83,32.83,0,1,1,700,588.15,32.86,32.86,0,0,1,667.14,621Z"/>
          </g>
          <path class="cls-44" d="M681.12,593.48c1.67,10.06-5.33,16.15-14.21,16.15s-14.81-6-13.74-16.15c1.18-11.2,13.74-26.8,13.74-26.8S679.3,582.52,681.12,593.48Z"/>
          <path class="cls-43" d="M667.14,605.54a1,1,0,0,1,0-2,8.93,8.93,0,0,0,8.92-8.92,1,1,0,0,1,2,0A10.94,10.94,0,0,1,667.14,605.54Z"/>
        </g>
        <text id="_100LTank" data-name="100LTank" class="cls-45" transform="translate(710.54 599.12)">100</text>
        <path class="cls-43" d="M765.63,621.41V610.12h1.31v10.1h5v1.19Z"/>
        <circle id="WaterEmpty1" class="cls-46" cx="786.53" cy="543.62" r="7.12"/>
      </g>
      <g id="WaterTank">
        <path class="cls-40" d="M849.73,543.62h116.5a2.54,2.54,0,0,1,2.54,2.54v84a2.54,2.54,0,0,1-2.54,2.54H849.73a44.53,44.53,0,0,1,0-89.06Z"/>
        <path id="WaterStatus" class="cls-41" d="M891.31,588.15a41.58,41.58,0,1,1-41.59-41.58A41.58,41.58,0,0,1,891.31,588.15Z"/>
        <g id="WaterStatusButton">
          <g>
            <path class="cls-42" d="M886.49,588.15c0,1.28-.07,2.53-.19,3.77-.06.61-.14,1.21-.24,1.83,0,.3-.09.59-.15.91-.1.6-.22,1.19-.36,1.78-.06.3-.15.6-.22.91-.15.58-.31,1.15-.5,1.72l-.27.86c-.1.29-.21.56-.3.85h0a36.9,36.9,0,0,1-21.88,21.89h0c-.28.1-.56.21-.85.3s-.57.19-.86.27c-.56.2-1.14.36-1.72.51-.3.06-.6.15-.91.22-.59.14-1.17.25-1.77.35-.31.07-.62.11-.92.15-.6.1-1.21.17-1.83.25-1.24.12-2.49.18-3.77.18s-2.52-.06-3.76-.18c-.61-.08-1.22-.15-1.83-.25-.3,0-.6-.08-.91-.15-.6-.1-1.2-.23-1.78-.35-.3-.07-.6-.16-.9-.22-.58-.15-1.17-.33-1.73-.51-.29-.08-.58-.18-.86-.27s-.57-.2-.86-.3h0a36.84,36.84,0,0,1-21.88-21.89h0c-.11-.29-.21-.56-.3-.85s-.19-.57-.28-.86c-.17-.57-.35-1.14-.5-1.72-.06-.31-.15-.61-.21-.91-.13-.59-.26-1.18-.37-1.78,0-.32-.1-.61-.15-.91-.09-.6-.17-1.22-.24-1.83-.11-1.24-.18-2.49-.18-3.77s.07-2.52.18-3.76c.07-.61.15-1.23.24-1.83.05-.3.1-.6.15-.92.11-.6.24-1.19.37-1.78.06-.3.15-.61.21-.9.15-.58.33-1.16.5-1.73.09-.29.19-.57.28-.85s.19-.57.3-.86h0a36.82,36.82,0,0,1,21.88-21.89h0l.86-.3.86-.28c.56-.17,1.15-.34,1.73-.49l.9-.22c.58-.13,1.18-.26,1.78-.36l.91-.15c.62-.1,1.22-.18,1.83-.24,1.24-.12,2.49-.19,3.76-.19s2.53.07,3.77.19c.62.06,1.22.14,1.83.24l.92.15c.6.1,1.18.22,1.77.36l.91.22c.58.15,1.16.31,1.72.49l.86.28.85.3h0a36.87,36.87,0,0,1,21.88,21.89h0c.12.29.21.57.3.86l.27.85c.19.57.35,1.15.5,1.73.07.29.16.6.22.9.14.59.26,1.18.36,1.78.06.32.1.62.15.92q.15.91.24,1.83C886.42,585.63,886.49,586.88,886.49,588.15Z"/>
            <path class="cls-44" d="M886.3,584.39q-.1-.93-.24-1.83c0-.3-.09-.6-.15-.92-.1-.6-.23-1.19-.36-1.78-.07-.3-.15-.6-.22-.9-.15-.58-.32-1.16-.5-1.73-.09-.29-.18-.58-.27-.85s-.2-.57-.31-.86h0a37,37,0,0,0-21.88-21.89h0l-.86-.3-.85-.27c-.57-.18-1.15-.35-1.73-.5l-.9-.22c-.59-.13-1.18-.26-1.79-.36l-.91-.15c-.6-.09-1.22-.18-1.83-.24-1.24-.12-2.49-.19-3.76-.19s-2.53.07-3.77.19c-.61.06-1.22.15-1.82.24-.31,0-.61.09-.92.15-.6.1-1.19.23-1.78.36l-.91.22c-.57.15-1.15.32-1.72.5l-.86.27-.85.3h0a37,37,0,0,0-21.88,21.89h0c-.1.29-.21.57-.3.86s-.19.56-.28.85c-.17.57-.35,1.15-.5,1.73-.07.3-.15.6-.22.9-.12.59-.25,1.18-.36,1.78,0,.32-.1.62-.15.92q-.14.9-.24,1.83c-.11,1.24-.18,2.49-.18,3.76s.07,2.53.18,3.76q.11.93.24,1.83l.15.92c.11.6.24,1.19.36,1.78.07.3.15.6.22.9.15.58.33,1.16.5,1.73.09.29.19.58.28.86s.2.56.3.85v0a37,37,0,0,0,21.88,21.88h0c.29.1.56.21.85.3l.86.28,1.72.5c.31.06.61.15.91.22.59.12,1.18.25,1.78.35.31.06.61.11.92.15.6.1,1.21.18,1.82.25,1.24.11,2.49.18,3.77.18s2.52-.07,3.76-.18c.61-.07,1.23-.15,1.83-.25l.91-.15c.61-.1,1.2-.23,1.79-.35.3-.07.6-.16.9-.22l1.73-.5.85-.28c.29-.09.57-.2.86-.3h0a37,37,0,0,0,21.88-21.88v0c.11-.29.21-.56.31-.85l.27-.86c.18-.57.35-1.15.5-1.73.07-.3.15-.6.22-.9.13-.59.26-1.18.36-1.78.06-.31.1-.62.15-.92q.13-.9.24-1.83c.12-1.23.19-2.48.19-3.76S886.42,585.63,886.3,584.39ZM849.73,621a32.83,32.83,0,1,1,32.82-32.83A32.87,32.87,0,0,1,849.73,621Z"/>
          </g>
          <g>
            <path class="cls-44" d="M866.74,571.46A1.54,1.54,0,0,0,865.2,573v13.13l-3.66,3.63a2.84,2.84,0,0,1-4,0,6,6,0,0,0-8.35,0l-1,1c-2.25,2.11-4.43-.43-4.43-.43a6,6,0,0,0-8.35,0l-1.13,1.12V573a1.55,1.55,0,1,0-3.09,0v33.73a1.54,1.54,0,0,0,1.55,1.54h34a1.54,1.54,0,0,0,1.55-1.54V573a1.54,1.54,0,0,0-1.55-1.55Zm-1.54,33.73H834.26v-9.37l3.3-3.28a2.86,2.86,0,0,1,4,0s4,4.54,8.78.44l1-1a2.84,2.84,0,0,1,4,0,6,6,0,0,0,8.35,0l1.48-1.47v14.7Z"/>
            <polygon class="cls-44" points="856.2 582.66 851.14 582.66 851.14 586.73 848.32 586.73 848.32 582.66 843.27 582.66 849.73 571.47 856.2 582.66"/>
          </g>
        </g>
        <path class="cls-43" d="M949.92,621.41V610.12h1.31v10.1h5v1.19Z"/>
        <text id="BigTank" class="cls-45" transform="translate(895.01 599.12)">350</text>
        <circle id="WaterEmpty" class="cls-46" cx="968.77" cy="543.62" r="7.12"/>
      </g>
      <g id="BlackWaterTank">
        <rect class="cls-40" x="210.72" y="75.93" width="127.3" height="47.46" rx="5.67"/>
        <text id="BlackWater" class="cls-47" transform="translate(264.06 114.24) scale(0.89 1)">50</text>
        <path class="cls-43" d="M323,101.73a7.63,7.63,0,0,1-.92,4.17,3,3,0,0,1-2.71,1.41,3,3,0,0,1-2.63-1.44,7.55,7.55,0,0,1-.94-4.14,7.65,7.65,0,0,1,.9-4.13,3,3,0,0,1,2.67-1.39,3,3,0,0,1,2.69,1.44A7.42,7.42,0,0,1,323,101.73Zm-5.53,0a8,8,0,0,0,.45,3.08,1.49,1.49,0,0,0,1.45,1q2,0,2-4.11t-2-4.08a1.49,1.49,0,0,0-1.45,1A8,8,0,0,0,317.46,101.73Zm13.07-5.27-9.81,17.68H319l9.8-17.68Zm3.11,12.36a7.58,7.58,0,0,1-.92,4.15,3,3,0,0,1-2.71,1.41,3,3,0,0,1-2.65-1.44,9.83,9.83,0,0,1,0-8.26,3,3,0,0,1,2.67-1.39,3.06,3.06,0,0,1,2.67,1.42A7.35,7.35,0,0,1,333.64,108.82Zm-5.54,0a8.26,8.26,0,0,0,.44,3.08,1.52,1.52,0,0,0,1.47,1,1.6,1.6,0,0,0,1.5-1,7.62,7.62,0,0,0,.48-3.1,7.45,7.45,0,0,0-.48-3.07,1.61,1.61,0,0,0-1.5-1,1.53,1.53,0,0,0-1.47,1A8.13,8.13,0,0,0,328.1,108.82Z"/>
        <circle id="BlackWaterStatus" class="cls-46" cx="334.52" cy="78.75" r="7.12"/>
        <g>
          <path class="cls-44" d="M247.28,85.16a1.18,1.18,0,0,0-1.19,1.18v10l-2.79,2.78a2.18,2.18,0,0,1-3.05,0,4.53,4.53,0,0,0-6.38,0l-.79.77c-1.71,1.61-3.38-.33-3.38-.33a4.53,4.53,0,0,0-6.38,0l-.86.85V86.34a1.18,1.18,0,0,0-2.36,0v25.77a1.18,1.18,0,0,0,1.18,1.18h26a1.18,1.18,0,0,0,1.18-1.18V86.34a1.18,1.18,0,0,0-1.18-1.18Zm-1.19,25.77H222.46v-7.16l2.52-2.51a2.18,2.18,0,0,1,3.05,0,4.67,4.67,0,0,0,6.72.34l.78-.78a2.18,2.18,0,0,1,3.05,0,4.55,4.55,0,0,0,6.38,0l1.13-1.12v11.23Z"/>
          <polygon class="cls-44" points="239.22 88.26 234.27 96.82 229.34 88.26 233.19 88.26 233.19 85.16 235.35 85.16 235.35 88.26 239.22 88.26"/>
        </g>
      </g>
    </g>
    <g id="Electric">
      <g id="Voltmeter">
        <rect class="cls-40" x="28.85" y="76" width="167.2" height="47.46" rx="5.67"/>
        <text id="Voltage" class="cls-45" transform="translate(73.27 112.53)">24.34</text>
        <path class="cls-20" d="M45.88,86.06v.78H45a.9.9,0,0,0-.9.9v.78H43.2a1.78,1.78,0,0,0-1.78,1.78v22.26a1.78,1.78,0,0,0,1.78,1.78H53.91a1.79,1.79,0,0,0,1.79-1.78V90.3a1.79,1.79,0,0,0-1.79-1.78H53v-.78a.89.89,0,0,0-.89-.9h-.9v-.78a.89.89,0,0,0-.89-.89H46.77A.89.89,0,0,0,45.88,86.06ZM45,90.3h8.92v22.26H43.2V90.3Z"/>
        <path class="cls-43" d="M182,114.2l-5-13.25h2.16l2.85,7.85a37,37,0,0,1,1.13,3.58h.1c.09-.42.37-1.31.84-2.65s1.53-4.27,3.17-8.78h2.16l-5,13.25Z"/>
      </g>
    </g>
    <g id="Time">
      <g id="Voltmeter-2" data-name="Voltmeter">
        <rect class="cls-40" x="28.85" y="23.96" width="167.2" height="47.46" rx="5.67"/>
        <text id="TimeNow" class="cls-45" transform="translate(73.27 60.5)">23:15</text>
        <g>
          <path class="cls-44" d="M48.56,33.33A14.46,14.46,0,1,0,63,47.79,14.48,14.48,0,0,0,48.56,33.33ZM49.8,60.18v-.66a1.25,1.25,0,0,0-2.49,0v.66c-5.75-.57-10.7-6.59-11.15-11.14h.66a1.25,1.25,0,0,0,0-2.49h-.66A12.47,12.47,0,0,1,47.31,35.4v.66a1.25,1.25,0,0,0,2.49,0V35.4A12.47,12.47,0,0,1,61,46.55h-.66a1.25,1.25,0,0,0,0,2.49H61A12.47,12.47,0,0,1,49.8,60.18Z"/>
          <path class="cls-44" d="M53.1,44.4l-3.85,1.8-3.09-6.64a1.25,1.25,0,0,0-2.26,1l3.63,7.77a1.24,1.24,0,0,0,1.65.6l5-2.32a1.25,1.25,0,0,0-1-2.26Z"/>
        </g>
      </g>
    </g>
    <g id="Lights">
      <g>
        <rect class="cls-48" x="240.24" y="316.84" width="22.35" height="22.35"/>
        <path class="cls-2" d="M261.78,317.65v20.73H241.05V317.65h20.73M263.4,316h-24v24h24V316Z"/>
      </g>
      <g>
        <rect class="cls-48" x="79.68" y="231.3" width="10.62" height="193.42"/>
        <path class="cls-2" d="M89.5,232.11v191.8h-9V232.11h9m1.62-1.62H78.87V425.54H91.12v-195Z"/>
      </g>
      <g>
        <rect class="cls-48" x="444.21" y="316.84" width="22.35" height="22.35"/>
        <path class="cls-2" d="M465.75,317.65v20.73H445V317.65h20.73m1.62-1.62h-24v24h24V316Z"/>
      </g>
      <g>
        <rect class="cls-48" x="692.37" y="320.37" width="22.35" height="22.35"/>
        <path class="cls-2" d="M713.91,321.18v20.74H693.18V321.18h20.73m1.62-1.62h-24v24h24v-24Z"/>
      </g>
      <g>
        <rect class="cls-48" x="702.93" y="454.53" width="22.35" height="22.35"/>
        <path class="cls-2" d="M724.47,455.35v20.73H703.74V455.35h20.73m1.63-1.63h-24v24h24v-24Z"/>
      </g>
      <g>
        <rect class="cls-48" x="924.91" y="316.84" width="22.35" height="22.35"/>
        <path class="cls-2" d="M946.45,317.65v20.73H925.72V317.65h20.73m1.62-1.62h-24v24h24V316Z"/>
      </g>
      <g>
        <rect class="cls-48" x="491.92" y="303.25" width="671.9" height="3.88"/>
        <path class="cls-2" d="M1163,304.06v2.25H492.73v-2.25H1163m1.64-1.63H491.1V308h673.54v-5.52Z"/>
      </g>
      <g>
        <rect class="cls-48" x="801.62" y="168.41" width="22.35" height="22.35"/>
        <path class="cls-2" d="M823.17,169.22V190H802.43V169.22h20.74m1.62-1.62h-24v24h24v-24Z"/>
      </g>
      <g>
        <rect class="cls-48" x="1001.38" y="454.01" width="22.35" height="22.35"/>
        <path class="cls-2" d="M1022.92,454.82v20.74h-20.73V454.82h20.73m1.62-1.62h-24v24h24v-24Z"/>
      </g>
      <g>
        <rect class="cls-48" x="1169.79" y="505.59" width="22.35" height="22.35"/>
        <path class="cls-2" d="M1191.33,506.41v20.73H1170.6V506.41h20.73m1.62-1.63h-24v24h24v-24Z"/>
      </g>
      <g>
        <rect class="cls-48" x="405.14" y="219" width="22.35" height="22.35"/>
        <path class="cls-2" d="M426.69,219.81v20.73H406V219.81h20.73m1.62-1.62h-24v24h24v-24Z"/>
      </g>
      <g>
        <rect class="cls-48" x="585.8" y="161.71" width="11.07" height="118.64"/>
        <path class="cls-2" d="M596.06,162.52v117h-9.45v-117h9.45m1.62-1.62H585V281.16h12.69V160.9Z"/>
      </g>
    </g>
    <g id="Vent">
      <g id="KitchenVent">
        <circle class="cls-40" cx="561.11" cy="588.15" r="44.53"/>
        <circle id="KitchenVentStatus" class="cls-41" cx="561.11" cy="588.15" r="41.58"/>
        <g id="KitchenVentButton">
          <circle class="cls-42" cx="561.11" cy="588.15" r="36.77"/>
          <g>
            <path class="cls-44" d="M564.1,585.62c1.9-1.75,9.42-9.9,8.82-17.58-.51-6.51-7.54-8.47-11.71-8.47s-10.71,2-11.21,8.47c-.59,7.53,5.88,15,8,17a4.24,4.24,0,0,1,3.13-1A4.13,4.13,0,0,1,564.1,585.62Z"/>
            <path class="cls-44" d="M556.92,588.15a4.64,4.64,0,0,1,.76-2.06c-2.75-.84-12.21-1.55-18.42,2.71-5.39,3.69-4.56,9.22-2.47,12.84s7.05,8.65,12.94,5.83c6.28-3,9.61-11.41,10.52-15A4.23,4.23,0,0,1,556.92,588.15Z"/>
            <path class="cls-44" d="M583.2,588.18c-6.17-4.23-15.27-2.84-18.11-2a4.46,4.46,0,0,1,.45,1.94c0,2.17-1.8,3.48-3.86,3.86.87,3.47,4.2,12.3,10.55,15.33,5.9,2.82,11.11-2,13.2-5.59S588.59,591.88,583.2,588.18Z"/>
            <path class="cls-44" d="M561.11,551.38a36.77,36.77,0,1,0,36.76,36.77A36.82,36.82,0,0,0,561.11,551.38Zm0,69.6a32.83,32.83,0,1,1,32.82-32.83A32.87,32.87,0,0,1,561.11,621Z"/>
          </g>
        </g>
        <g id="KitchenVentArrow">
          <path class="cls-44" d="M581.3,524.41l.37.11.34.12v0c-.2.21-.65.16-.69-.16A.28.28,0,0,1,581.3,524.41Z"/>
          <g>
            <path class="cls-44" d="M581.31,524.5a.64.64,0,0,1,.36,0l.33.14C581.8,524.87,581.35,524.82,581.31,524.5Z"/>
            <path class="cls-44" d="M574.73,519.18a1,1,0,0,1,.07.39l-.41,0a.33.33,0,0,0,.24-.18Z"/>
          </g>
          <path class="cls-44" d="M619.85,480c-8.39,1.07-16.34,4.78-23.7,8.8a34,34,0,0,0-9.54,7.29,65.22,65.22,0,0,0-7.34,9.92,46.44,46.44,0,0,0-2.9,6.33c-.76,1.93-1.58,3.86-2.22,5.84a28.34,28.34,0,0,0-3-3.88.83.83,0,0,0-1.28.23c-1.32,2.76-1.05,6.2-1.18,9.18q-.21,5.29-.25,10.57a.86.86,0,0,0,1.09.78c6.71-1.23,13.42-2.42,20.12-3.73a.82.82,0,0,0,.31-1.38,25.93,25.93,0,0,0-7.4-5.05h0l-.06,0-.47-.2v0c-.2.21-.65.16-.69-.16a.28.28,0,0,1,0-.09,28,28,0,0,0-4.65-.58c-2.1-.19-4.21-.25-6.31-.24h0c0-1.05.09-2.08.15-3.13a34.64,34.64,0,0,0,5.2.44q2.87.29,5.71.63a1,1,0,0,0,.4,0,16.34,16.34,0,0,0-.5,2.92l.37.11.34.12a.27.27,0,0,0,.09-.15,23,23,0,0,1,5.57-10.24,35.12,35.12,0,0,1,11.4-7.55c8.86-3.91,18.27-5.66,27.56-8.17a.69.69,0,0,0,.55-.54.47.47,0,0,0,.12-.41,72.7,72.7,0,0,0-3-9.18c-.51-1.48-1-3-1.55-4.44a18.19,18.19,0,0,0-1.7-4.29A.68.68,0,0,0,619.85,480Zm-49.73,53.26c0-.59,0-1.18,0-1.78,1.59.32,3.17.62,4.77.89Zm9.43-1.76h0a22.37,22.37,0,0,0-4.14-.48c-1.75-.16-3.49-.29-5.25-.39,0-.77,0-1.54.05-2.31,4.32,1,8.63,1.9,13,2.51Zm-3-6.25c1.82.28,3.85,1,5.68.9h.08a43.55,43.55,0,0,1,4.85,3.46h0l-.1,0h-.09c-5.56-.58-11.16-1.28-16.68-2.25,0-.89,0-1.79.07-2.67a1.21,1.21,0,0,1,0-.19Q573.43,524.71,576.51,525.24Zm14.09-30.81.7-.57a41.63,41.63,0,0,1,5.38-3.54.44.44,0,0,0,.18.12c3.75,1.35,7.49,2.77,11.18,4.27,3.23,1.32,6.34,2.81,9.51,4.24-1.28.33-2.55.67-3.82,1a.73.73,0,0,0-.29-.16c-4.12-1.27-8.28-2.48-12.44-3.62A45.92,45.92,0,0,0,590.6,494.43Zm-.94.86c7.23.89,14.21,3.43,21.2,5.5l-.16,0-3,.92a.67.67,0,0,0-.52-.4c-3.78-.74-7.71-1-11.54-1.41-3.15-.33-6.3-.56-9.46-.76A40.63,40.63,0,0,1,589.66,495.29Zm-4.26,4.83c3.45.48,6.9,1,10.37,1.42,3,.38,6,.88,9,1.2-1.94.67-3.86,1.41-5.74,2.23a.71.71,0,0,0-.31-.33l-.09-.05a.65.65,0,0,0-.45,0c-2.67-.21-5.32-.65-8-.72a50.93,50.93,0,0,0-7.71.2C583.36,502.69,584.37,501.39,585.4,500.12ZM570.52,519.7a15.86,15.86,0,0,1,.36-3.16c.76,1,1.44,2,2.18,3A11.67,11.67,0,0,0,570.52,519.7Zm11.68.52a.62.62,0,0,0-.45-.23c-1.91-.2-3.84-.34-5.77-.38-.38,0-.77,0-1.18,0l-.41,0a.33.33,0,0,0,.24-.18l.1-.18c.39-.71.75-1.42,1.08-2.15a.45.45,0,0,0,.38.19q2,.07,4,.27a8.57,8.57,0,0,0,3.06.18.93.93,0,0,0,.2-.09A16.13,16.13,0,0,0,582.2,520.22Zm3.83-6.33a22.45,22.45,0,0,0-2.44,3.36.6.6,0,0,0-.29-.64,7,7,0,0,0-3.25-.48,26.64,26.64,0,0,0-3.89.15c.48-1,.93-2.09,1.37-3.14a.42.42,0,0,0,.33.32c2.64.33,5.35.31,8,.44Zm.55-.6a.84.84,0,0,0-.77-.94,36.19,36.19,0,0,0-8,.25l-.06,0c.45-1.05.9-2.09,1.4-3.12q2.73.56,5.49.87c.9.1,1.78.19,2.67.25a7.79,7.79,0,0,0,2.1,0A26.41,26.41,0,0,0,586.58,513.29Zm3.73-3.35a.5.5,0,0,0-.28-.45,4.82,4.82,0,0,0-2.27-.32l-2.73-.12c-1.82-.09-3.63-.23-5.44-.42a25.45,25.45,0,0,1,1.67-2.91c.13-.21.27-.41.41-.61,2.76.13,5.51.05,8.25.23,1.42.09,2.83.21,4.24.35.76.08,1.6.27,2.44.38A39.78,39.78,0,0,0,590.31,509.94Zm35.29-13.09a.67.67,0,0,0,.32,0c0,.05.06.12.09.18-2.06.4-4.12.86-6.17,1.36a.64.64,0,0,0-.41-.39,96.35,96.35,0,0,0-21.85-8.16c2.14-1.15,4.34-2.19,6.51-3.16a90.87,90.87,0,0,1,11.13,4.5q2.64,1.27,5.18,2.71,1.36.78,2.7,1.62A7,7,0,0,0,625.6,496.85ZM623,489.1c.69,1.83,1.32,3.75,2,5.6-.25-.15-.5-.29-.75-.45q-1.34-.84-2.7-1.62c-1.89-1.08-3.83-2.08-5.8-3A64.36,64.36,0,0,0,605.48,486c1.69-.74,3.4-1.42,5.14-2,4,1.64,8.13,3,12.17,4.6C622.85,488.78,622.91,488.94,623,489.1Zm-2.8-7.51h0c.31,1,.76,1.93,1.09,2.84l.72,2a55.58,55.58,0,0,0-9.61-2.95A56.77,56.77,0,0,1,620.16,481.59Z"/>
          <path class="cls-44" d="M581.3,524.41l.37.11.34.12v0c-.2.21-.65.16-.69-.16A.28.28,0,0,1,581.3,524.41Z"/>
        </g>
      </g>
      <g id="BathVent">
        <circle class="cls-40" cx="408.53" cy="68.73" r="44.53"/>
        <circle id="BathVentStatus" class="cls-41" cx="408.53" cy="68.73" r="41.58"/>
        <g id="BathVentButton">
          <circle class="cls-42" cx="408.53" cy="68.73" r="36.77"/>
          <g>
            <path class="cls-44" d="M411.52,66.2c1.9-1.76,9.42-9.9,8.82-17.58-.5-6.51-7.54-8.48-11.71-8.48s-10.7,2-11.21,8.48c-.58,7.52,5.89,15,8,17a4.24,4.24,0,0,1,3.13-1A4.13,4.13,0,0,1,411.52,66.2Z"/>
            <path class="cls-44" d="M404.35,68.73a4.66,4.66,0,0,1,.75-2.06c-2.75-.84-12.2-1.56-18.42,2.7-5.39,3.7-4.55,9.23-2.47,12.84s7.05,8.65,13,5.83c6.27-3,9.6-11.41,10.51-15A4.22,4.22,0,0,1,404.35,68.73Z"/>
            <path class="cls-44" d="M430.62,68.76c-6.16-4.23-15.27-2.84-18.11-2a4.4,4.4,0,0,1,.45,2c0,2.17-1.8,3.47-3.86,3.86.87,3.46,4.2,12.29,10.56,15.33,5.89,2.82,11.11-2,13.19-5.6S436,72.46,430.62,68.76Z"/>
            <path class="cls-44" d="M408.53,32A36.77,36.77,0,1,0,445.3,68.73,36.8,36.8,0,0,0,408.53,32Zm0,69.59a32.83,32.83,0,1,1,32.83-32.82A32.86,32.86,0,0,1,408.53,101.55Z"/>
          </g>
        </g>
        <g id="BathVentArrow">
          <path class="cls-44" d="M443.7,122.07l-.34.18-.33.16s0,0,0,0c0-.3.34-.58.59-.38A.24.24,0,0,1,443.7,122.07Z"/>
          <g>
            <path class="cls-44" d="M443.62,122a.56.56,0,0,1-.26.24l-.33.14C443,122.09,443.37,121.81,443.62,122Z"/>
            <path class="cls-44" d="M452,121.09a.91.91,0,0,1-.33-.22l.31-.27a.38.38,0,0,0,0,.3Z"/>
          </g>
          <path class="cls-44" d="M448,180.73c5.16-6.71,8.13-15,10.48-23a33.81,33.81,0,0,0,1.55-11.9,65.28,65.28,0,0,0-1.85-12.2,46.54,46.54,0,0,0-2.44-6.52c-.84-1.9-1.62-3.85-2.58-5.69a28.68,28.68,0,0,0,4.87.6.83.83,0,0,0,.75-1.07c-1-2.88-3.66-5.12-5.68-7.31-2.4-2.59-4.85-5.13-7.32-7.64a.86.86,0,0,0-1.32.23c-3.85,5.62-7.75,11.22-11.55,16.89-.36.53.2,1.21.77,1.19a25.8,25.8,0,0,0,8.8-1.68h0a.11.11,0,0,0,.08,0l.47-.18s0,0,0,0c0-.3.34-.58.59-.38a.24.24,0,0,1,.08.06,28.1,28.1,0,0,0,3.69-2.9,60.58,60.58,0,0,0,4.61-4.3h0c.72.77,1.42,1.54,2.12,2.31a36.4,36.4,0,0,0-4,3.38q-2.2,1.83-4.47,3.6a.8.8,0,0,0-.25.31,16.57,16.57,0,0,0-1.72-2.41l-.34.18-.33.16a.25.25,0,0,0,0,.16,23,23,0,0,1,3.33,11.17,34.93,34.93,0,0,1-2.68,13.41c-3.48,9-8.88,16.95-13.65,25.3a.69.69,0,0,0,0,.77.48.48,0,0,0,.2.38,72.32,72.32,0,0,0,8.6,4.37q2.11,1,4.24,2a18.39,18.39,0,0,0,4.24,1.82A.68.68,0,0,0,448,180.73Zm-2.68-72.83c.41.42.83.84,1.24,1.27-1.35.9-2.68,1.81-4,2.76Zm-5.41,7.93h0a22.42,22.42,0,0,0,3.27-2.61c1.35-1.12,2.67-2.26,4-3.44.53.55,1.07,1.1,1.6,1.67-3.78,2.32-7.43,4.77-11,7.44C438.51,117.87,439.21,116.86,439.91,115.83Zm6.58,2.26c-1.48,1.09-3.43,2-4.65,3.38l0,.07a45,45,0,0,1-5.87,1h0l.08-.06.06-.06c4.34-3.54,8.78-7,13.36-10.24.63.63,1.24,1.28,1.85,1.93a1.49,1.49,0,0,1,.12.14C449.82,115.59,448.18,116.87,446.49,118.09Zm11.9,31.71c0,.3-.06.6-.09.9A40.84,40.84,0,0,1,457,157a.56.56,0,0,0-.21,0c-3.6,1.71-7.24,3.36-10.91,4.92-3.21,1.35-6.46,2.51-9.71,3.75.67-1.14,1.32-2.28,2-3.44a.55.55,0,0,0,.31-.09c3.82-2,7.6-4.12,11.35-6.27A45.59,45.59,0,0,0,458.39,149.8Zm.06-1.27c-5.74,4.5-12.46,7.66-18.86,11.14l.08-.14c.5-.93,1-1.86,1.49-2.81a.68.68,0,0,0,.65-.08c3.19-2.16,6.16-4.75,9.14-7.19,2.45-2,4.84-4.07,7.21-6.17A40,40,0,0,1,458.45,148.53ZM458,142.1c-2.78,2.11-5.55,4.21-8.32,6.35-2.36,1.83-4.84,3.6-7.17,5.5.89-1.85,1.73-3.73,2.47-5.64a.69.69,0,0,0,.45,0l.1,0a.62.62,0,0,0,.35-.28c2-1.75,4.21-3.31,6.17-5.17a52.85,52.85,0,0,0,5.29-5.6C457.64,138.85,457.85,140.47,458,142.1Zm-3.4-24.36a16.41,16.41,0,0,1,2,2.49c-1.22-.14-2.41-.36-3.64-.54A11,11,0,0,0,454.63,117.74ZM446,125.66a.63.63,0,0,0,.47-.16c1.49-1.21,2.95-2.48,4.34-3.82.27-.27.56-.53.86-.81l.31-.27a.38.38,0,0,0,0,.3l.06.19c.23.78.48,1.54.76,2.29a.43.43,0,0,0-.4.13c-1,.9-2,1.78-3,2.62a8.31,8.31,0,0,0-2.28,2.05,1,1,0,0,0-.08.19A17.29,17.29,0,0,0,446,125.66Zm1.78,7.18a21.63,21.63,0,0,0-.67-4.11.62.62,0,0,0,.66.26,7,7,0,0,0,2.64-2,27.54,27.54,0,0,0,2.63-2.87c.4,1.08.83,2.14,1.27,3.2a.41.41,0,0,0-.47,0c-2.09,1.63-4,3.57-5.95,5.36A.42.42,0,0,0,447.82,132.84Zm0,.81a.82.82,0,0,0,1.2.11,35.45,35.45,0,0,0,5.46-5.83l0-.06c.43,1.06.85,2.11,1.23,3.19-1.55,1-3,2.12-4.5,3.29-.7.55-1.38,1.12-2,1.71a7.7,7.7,0,0,0-1.5,1.46A27.87,27.87,0,0,0,447.86,133.65Zm-.26,5a.49.49,0,0,0,.52.11,4.67,4.67,0,0,0,1.82-1.38c.66-.62,1.33-1.23,2-1.84q2-1.85,4.14-3.57a29.21,29.21,0,0,1,.89,3.24c0,.24.1.48.14.72-2,1.86-3.93,3.87-6,5.69-1.07.93-2.15,1.85-3.24,2.75-.59.48-1.32,1-2,1.46A38.2,38.2,0,0,0,447.6,138.66ZM432,172.91a.6.6,0,0,0-.21.24l-.19-.07q1.76-2.61,3.38-5.33a.61.61,0,0,0,.57,0,96.39,96.39,0,0,0,21.2-9.73c-.69,2.33-1.52,4.62-2.36,6.84a89.58,89.58,0,0,1-11,4.72q-2.74,1-5.57,1.76c-1,.28-2,.54-3.06.77A7,7,0,0,0,432,172.91Zm7.36,3.6c-1.79-.81-3.59-1.72-5.42-2.5l.85-.22c1-.24,2-.5,3.06-.77,2.09-.58,4.17-1.25,6.19-2a65.25,65.25,0,0,0,9.82-4.73c-.67,1.72-1.4,3.41-2.21,5.06-4,1.69-7.87,3.63-11.84,5.38Zm7.3,3.31h0c-.91-.47-1.9-.82-2.79-1.23L442,177.7a55.49,55.49,0,0,0,8.87-4.73A58,58,0,0,1,446.65,179.82Z"/>
          <path class="cls-44" d="M443.7,122.07l-.34.18-.33.16s0,0,0,0c0-.3.34-.58.59-.38A.24.24,0,0,1,443.7,122.07Z"/>
        </g>
      </g>
      <g id="MainVent">
        <path class="cls-40" d="M1145.14,24h98.19a2.54,2.54,0,0,1,2.54,2.53v84a2.54,2.54,0,0,1-2.54,2.53h-98.19a44.53,44.53,0,1,1,0-89Z"/>
        <circle id="MainVentStaus" class="cls-41" cx="1144.81" cy="68.73" r="41.58"/>
        <g id="MainVentButton">
          <circle class="cls-42" cx="1144.81" cy="68.73" r="36.77"/>
          <g>
            <path class="cls-44" d="M1147.8,66.2c1.9-1.76,9.42-9.9,8.82-17.58-.5-6.51-7.54-8.48-11.71-8.48s-10.7,2-11.21,8.48c-.58,7.52,5.89,15,8,17a4.24,4.24,0,0,1,3.13-1A4.13,4.13,0,0,1,1147.8,66.2Z"/>
            <path class="cls-44" d="M1140.63,68.73a4.66,4.66,0,0,1,.75-2.06c-2.75-.84-12.2-1.56-18.42,2.7-5.39,3.7-4.55,9.23-2.47,12.84s7,8.65,13,5.83c6.27-3,9.6-11.41,10.51-15A4.22,4.22,0,0,1,1140.63,68.73Z"/>
            <path class="cls-44" d="M1166.91,68.76c-6.17-4.23-15.28-2.84-18.12-2a4.4,4.4,0,0,1,.45,2c0,2.17-1.8,3.47-3.86,3.86.87,3.46,4.2,12.29,10.56,15.33,5.89,2.82,11.11-2,13.19-5.6S1172.29,72.46,1166.91,68.76Z"/>
            <path class="cls-44" d="M1144.81,32a36.77,36.77,0,1,0,36.77,36.77A36.8,36.8,0,0,0,1144.81,32Zm0,69.59a32.83,32.83,0,1,1,32.83-32.82A32.85,32.85,0,0,1,1144.81,101.55Z"/>
          </g>
        </g>
        <g id="MainVentDown">
          <rect class="cls-49" x="1206.17" y="74.97" width="33.35" height="33.35" rx="5.67"/>
          <g>
            <path class="cls-44" d="M1233,109.34h-20.22a7.59,7.59,0,0,1-7.58-7.58V81.54a7.59,7.59,0,0,1,7.58-7.58H1233a7.59,7.59,0,0,1,7.58,7.58v20.22A7.59,7.59,0,0,1,1233,109.34ZM1212.74,76a5.56,5.56,0,0,0-5.55,5.55v20.22a5.56,5.56,0,0,0,5.55,5.55H1233a5.56,5.56,0,0,0,5.55-5.55V81.54A5.56,5.56,0,0,0,1233,76Z"/>
            <path class="cls-44" d="M1232.92,92.66h-19.77a1,1,0,1,1,0-2h19.77a1,1,0,1,1,0,2Z"/>
          </g>
        </g>
        <g id="MainVentUp">
          <rect class="cls-49" x="1206.17" y="29.13" width="33.35" height="33.35" rx="5.67"/>
          <g>
            <path class="cls-44" d="M1233,63.49h-20.22a7.59,7.59,0,0,1-7.58-7.57V35.69a7.59,7.59,0,0,1,7.58-7.58H1233a7.59,7.59,0,0,1,7.58,7.58V55.92A7.59,7.59,0,0,1,1233,63.49Zm-20.22-33.35a5.56,5.56,0,0,0-5.55,5.55V55.92a5.56,5.56,0,0,0,5.55,5.55H1233a5.56,5.56,0,0,0,5.55-5.55V35.69a5.56,5.56,0,0,0-5.55-5.55Z"/>
            <path class="cls-44" d="M1232.92,46.82h-19.77a1,1,0,1,1,0-2h19.77a1,1,0,1,1,0,2Z"/>
            <path class="cls-44" d="M1223,56.71a1,1,0,0,1-1-1V35.92a1,1,0,1,1,2,0V55.69A1,1,0,0,1,1223,56.71Z"/>
          </g>
        </g>
        <path id="MainVentArrow" class="cls-44" d="M1101,209l.06.15c.25.84.49,1.69.73,2.53,0,0,0,0,0,0,8.11,30,.24,61.12-19.62,79.67-5.48,5.11-12.16,10.07-19.33,12.23.82,2.08,1.64,4.13,2.65,6.14a1,1,0,0,1-.66,1.51c-5.4.84-11.1.48-16.63.47s-11.31,0-17,0a1.26,1.26,0,0,1-1-2.05c7.58-9.36,15.31-18.54,23.48-27.28.46-.49,1.27-.16,1.59.47,1.41,2.8,2.74,5.64,3.93,8.54,6.92-3.81,13.63-7.37,19.45-13A67.71,67.71,0,0,0,1092.56,259a78.52,78.52,0,0,0,6.84-23.11,106.86,106.86,0,0,0,.86-12.83c.06-4.48.75-9.26-.1-13.79v0A.41.41,0,0,1,1101,209Zm1,13.22a111.05,111.05,0,0,1-.71,13.94,81.19,81.19,0,0,1-6.61,23.36,68.9,68.9,0,0,1-14.49,20.72c-6,5.84-13.45,11.41-21.55,13.51a.76.76,0,0,1-.89-.71,1.14,1.14,0,0,1-.09-.16c-1-2.63-2.17-5.2-3.4-7.75-7.27,7.8-14.34,15.86-21,24.34,9.92.06,20.09.75,29.83-.26a26.91,26.91,0,0,1-1.9-6.54.6.6,0,0,1,.31-.66.59.59,0,0,1,.18-.14c4-2.17,8.11-3.94,11.88-6.55a65.72,65.72,0,0,0,10-8.48,69.2,69.2,0,0,0,14.51-23c5.34-13.86,6.58-29.78,4-45.49C1102,219.68,1102,221,1102,222.22Z"/>
      </g>
    </g>
    <g id="Heat">
      <g id="BedroomFloorHeater">
        <circle class="cls-40" cx="73.72" cy="588.15" r="44.53"/>
        <circle id="BedroomFloorHeaterStatus" class="cls-41" cx="73.72" cy="588.15" r="41.58"/>
        <g id="BedroomFloorButton">
          <circle class="cls-42" cx="73.72" cy="588.15" r="36.77"/>
          <path class="cls-20" d="M73.72,551.39a36.77,36.77,0,1,0,36.77,36.76A36.8,36.8,0,0,0,73.72,551.39Zm0,69.59a32.83,32.83,0,1,1,32.83-32.83A32.86,32.86,0,0,1,73.72,621Z"/>
          <path class="cls-20" d="M91.39,608.82a1.22,1.22,0,0,1-1.22-1.21v-38c0-.74-.4-1.31-.75-1.31H85c-.35,0-.75.57-.75,1.31v35.44A3.49,3.49,0,0,1,81,608.82H76.58a3.49,3.49,0,0,1-3.18-3.73V569.65c0-.74-.4-1.31-.75-1.31H68.2c-.35,0-.75.57-.75,1.31v35.44a3.49,3.49,0,0,1-3.18,3.73H59.81a3.49,3.49,0,0,1-3.18-3.73v-38a1.22,1.22,0,1,1,2.43,0v38c0,.73.4,1.3.75,1.3h4.46c.34,0,.74-.57.74-1.3V569.65a3.5,3.5,0,0,1,3.19-3.74h4.45a3.5,3.5,0,0,1,3.18,3.74v35.44c0,.73.41,1.3.75,1.3H81c.35,0,.75-.57.75-1.3V569.65A3.5,3.5,0,0,1,85,565.91h4.45a3.5,3.5,0,0,1,3.19,3.74v38A1.22,1.22,0,0,1,91.39,608.82Z"/>
        </g>
        <path id="BedroomFloorStair" class="cls-20" d="M317.76,373.66h-24.5a.81.81,0,0,1,0-1.62h24.5c.54,0,.81-.27.81-.33v-2.59c0-.06-.27-.33-.81-.33H294.88a2.2,2.2,0,0,1-2.43-2v-2.59a2.21,2.21,0,0,1,2.43-1.95h22.88c.54,0,.81-.27.81-.33v-2.59c0-.06-.27-.33-.81-.33H294.88a2.21,2.21,0,0,1-2.43-1.95v-2.59a2.21,2.21,0,0,1,2.43-1.95h22.88c.54,0,.81-.27.81-.33v-2.59c0-.06-.27-.33-.81-.33H294.88a2.2,2.2,0,0,1-2.43-1.95v-2.59a2.21,2.21,0,0,1,2.43-1.95h22.88c.54,0,.81-.27.81-.33V339.9c0-.06-.27-.33-.81-.33H294.88a2.2,2.2,0,0,1-2.43-1.95V335a2.21,2.21,0,0,1,2.43-1.95h22.88c.54,0,.81-.27.81-.33v-2.59c0-.06-.27-.33-.81-.33H294.88a2.21,2.21,0,0,1-2.43-1.95v-2.59a2.21,2.21,0,0,1,2.43-2h22.88c.54,0,.81-.27.81-.33v-2.59c0-.06-.27-.33-.81-.33H294.88a2.21,2.21,0,0,1-2.43-1.95v-2.59a2.21,2.21,0,0,1,2.43-1.95h24.5a.81.81,0,0,1,0,1.62h-24.5c-.54,0-.81.27-.81.33v2.59c0,.06.27.33.81.33h22.88a2.21,2.21,0,0,1,2.43,1.95V323a2.21,2.21,0,0,1-2.43,1.95H294.88c-.54,0-.81.27-.81.33v2.59c0,.06.27.33.81.33h22.88a2.21,2.21,0,0,1,2.43,2v2.59a2.2,2.2,0,0,1-2.43,1.95H294.88c-.54,0-.81.27-.81.33v2.59c0,.06.27.33.81.33h22.88a2.21,2.21,0,0,1,2.43,1.95v2.59a2.2,2.2,0,0,1-2.43,1.95H294.88c-.54,0-.81.27-.81.33v2.59c0,.06.27.33.81.33h22.88a2.21,2.21,0,0,1,2.43,1.95v2.59a2.2,2.2,0,0,1-2.43,1.95H294.88c-.54,0-.81.27-.81.33v2.59c0,.06.27.33.81.33h22.88a2.21,2.21,0,0,1,2.43,1.95V362a2.2,2.2,0,0,1-2.43,1.95H294.88c-.54,0-.81.27-.81.33v2.59c0,.06.27.33.81.33h22.88a2.21,2.21,0,0,1,2.43,1.95v2.59A2.2,2.2,0,0,1,317.76,373.66Z"/>
        <path id="BedroomFloorMain" class="cls-20" d="M64.47,431.77H50.62a.81.81,0,1,1,0-1.62h13.7a2.44,2.44,0,0,0,.25-1.2v-4.56a2.37,2.37,0,0,0-.25-1.2H51.54c-1,0-1.73-1.16-1.73-2.82v-4.56c0-1.66.71-2.82,1.73-2.82H64.32a2.41,2.41,0,0,0,.25-1.2v-4.56a2.37,2.37,0,0,0-.25-1.2H51.54c-1,0-1.73-1.16-1.73-2.82v-4.56c0-1.66.71-2.82,1.73-2.82H64.32a2.37,2.37,0,0,0,.25-1.2v-4.56a2.44,2.44,0,0,0-.25-1.2H51.54c-1,0-1.73-1.16-1.73-2.82V381.5c0-1.67.71-2.83,1.73-2.83H64.32a2.37,2.37,0,0,0,.25-1.2v-4.55a2.37,2.37,0,0,0-.25-1.2H51.54c-1,0-1.73-1.16-1.73-2.83v-4.55c0-1.66.71-2.82,1.73-2.82H64.32a2.44,2.44,0,0,0,.25-1.2v-4.56a2.37,2.37,0,0,0-.25-1.2H51.54c-1,0-1.73-1.16-1.73-2.82v-4.56c0-1.66.71-2.82,1.73-2.82H64.32a2.37,2.37,0,0,0,.25-1.2V338.6a2.41,2.41,0,0,0-.25-1.2H51.54c-1,0-1.73-1.16-1.73-2.82V330c0-1.66.71-2.82,1.73-2.82H64.32a2.37,2.37,0,0,0,.25-1.2v-4.56a2.44,2.44,0,0,0-.25-1.2H51.54c-1,0-1.73-1.16-1.73-2.82v-4.55c0-1.67.71-2.83,1.73-2.83H64.32a2.36,2.36,0,0,0,.25-1.19v-4.56a2.37,2.37,0,0,0-.25-1.2H51.54c-1,0-1.73-1.16-1.73-2.82v-4.56c0-1.66.71-2.82,1.73-2.82H64.32a2.41,2.41,0,0,0,.25-1.2v-4.56a2.37,2.37,0,0,0-.25-1.2H51.54c-1,0-1.73-1.16-1.73-2.82v-4.56c0-1.66.71-2.82,1.73-2.82H64.32a2.37,2.37,0,0,0,.25-1.2V270a2.44,2.44,0,0,0-.25-1.2H51.54c-1,0-1.73-1.16-1.73-2.82v-4.56c0-1.66.71-2.82,1.73-2.82H64.32a2.37,2.37,0,0,0,.25-1.2v-4.55a2.37,2.37,0,0,0-.25-1.2H51.54c-1,0-1.73-1.16-1.73-2.83v-4.55c0-1.66.71-2.82,1.73-2.82H64.32a2.44,2.44,0,0,0,.25-1.2v-4.56a2.37,2.37,0,0,0-.25-1.2H51.54c-1,0-1.73-1.16-1.73-2.82v-4.56c0-1.66.71-2.82,1.73-2.82H65.39a.81.81,0,0,1,0,1.62H51.68a2.49,2.49,0,0,0-.25,1.2v4.56a2.56,2.56,0,0,0,.25,1.2H64.47c1,0,1.73,1.16,1.73,2.82v4.56c0,1.66-.72,2.82-1.73,2.82H51.68a2.49,2.49,0,0,0-.25,1.2v4.55a2.49,2.49,0,0,0,.25,1.2H64.47c1,0,1.73,1.17,1.73,2.83v4.55c0,1.66-.72,2.82-1.73,2.82H51.68a2.56,2.56,0,0,0-.25,1.2V266a2.49,2.49,0,0,0,.25,1.2H64.47c1,0,1.73,1.16,1.73,2.82v4.56c0,1.66-.72,2.82-1.73,2.82H51.68a2.53,2.53,0,0,0-.25,1.2v4.56a2.53,2.53,0,0,0,.25,1.2H64.47c1,0,1.73,1.16,1.73,2.82v4.56c0,1.66-.72,2.82-1.73,2.82H51.68a2.49,2.49,0,0,0-.25,1.2v4.56a2.56,2.56,0,0,0,.25,1.2H64.47c1,0,1.73,1.16,1.73,2.82v4.56c0,1.66-.72,2.82-1.73,2.82H51.68a2.49,2.49,0,0,0-.25,1.2v4.55a2.49,2.49,0,0,0,.25,1.2H64.47c1,0,1.73,1.16,1.73,2.82V326c0,1.66-.72,2.82-1.73,2.82H51.68a2.56,2.56,0,0,0-.25,1.2v4.56a2.49,2.49,0,0,0,.25,1.2H64.47c1,0,1.73,1.16,1.73,2.82v4.56c0,1.66-.72,2.82-1.73,2.82H51.68a2.49,2.49,0,0,0-.25,1.2v4.56a2.53,2.53,0,0,0,.25,1.2H64.47c1,0,1.73,1.16,1.73,2.82v4.56c0,1.66-.72,2.82-1.73,2.82H51.68a2.49,2.49,0,0,0-.25,1.2v4.55a2.58,2.58,0,0,0,.25,1.21H64.47c1,0,1.73,1.16,1.73,2.82v4.55c0,1.67-.72,2.83-1.73,2.83H51.68a2.49,2.49,0,0,0-.25,1.2v4.55a2.49,2.49,0,0,0,.25,1.2H64.47c1,0,1.73,1.16,1.73,2.82v4.56c0,1.66-.72,2.82-1.73,2.82H51.68a2.56,2.56,0,0,0-.25,1.2v4.56a2.49,2.49,0,0,0,.25,1.2H64.47c1,0,1.73,1.16,1.73,2.82v4.56c0,1.66-.72,2.82-1.73,2.82H51.68a2.49,2.49,0,0,0-.25,1.2v4.56a2.56,2.56,0,0,0,.25,1.2H64.47c1,0,1.73,1.16,1.73,2.82V429C66.2,430.61,65.48,431.77,64.47,431.77Z"/>
      </g>
      <g id="BathroomFloorHeater">
        <circle class="cls-40" cx="518.11" cy="68.73" r="44.53"/>
        <circle id="BathroomFloorHeaterStatus" class="cls-41" cx="518.11" cy="68.73" r="41.58"/>
        <g id="BathroomFloorButton">
          <circle class="cls-42" cx="518.11" cy="68.73" r="36.77"/>
          <path class="cls-20" d="M518.11,32a36.77,36.77,0,1,0,36.76,36.77A36.81,36.81,0,0,0,518.11,32Zm0,69.59a32.83,32.83,0,1,1,32.82-32.82A32.86,32.86,0,0,1,518.11,101.55Z"/>
          <path class="cls-20" d="M535.78,89.4a1.22,1.22,0,0,1-1.22-1.22v-38c0-.73-.4-1.3-.75-1.3h-4.46c-.34,0-.74.57-.74,1.3V85.67a3.5,3.5,0,0,1-3.19,3.73H521a3.49,3.49,0,0,1-3.18-3.73V50.22c0-.73-.41-1.3-.75-1.3h-4.46c-.35,0-.75.57-.75,1.3V85.67a3.49,3.49,0,0,1-3.18,3.73H504.2A3.5,3.5,0,0,1,501,85.67v-38a1.22,1.22,0,0,1,2.44,0v38c0,.73.4,1.3.75,1.3h4.45c.35,0,.75-.57.75-1.3V50.22a3.49,3.49,0,0,1,3.18-3.73H517a3.49,3.49,0,0,1,3.18,3.73V85.67c0,.73.4,1.3.75,1.3h4.45c.35,0,.75-.57.75-1.3V50.22a3.49,3.49,0,0,1,3.18-3.73h4.46A3.49,3.49,0,0,1,537,50.22v38A1.22,1.22,0,0,1,535.78,89.4Z"/>
        </g>
        <path id="BathroomFloor" class="cls-20" d="M456.5,289.58h-34a.81.81,0,1,1,0-1.62h34c.87,0,1.45-.43,1.45-.71v-3.42c0-.28-.58-.7-1.45-.7H424.79c-1.71,0-3.06-1-3.06-2.33v-3.42c0-1.31,1.35-2.33,3.06-2.33H456.5c.87,0,1.45-.42,1.45-.7v-3.43c0-.27-.58-.7-1.45-.7H424.79c-1.71,0-3.06-1-3.06-2.32v-3.43c0-1.3,1.35-2.32,3.06-2.32H456.5c.87,0,1.45-.42,1.45-.7V258c0-.28-.58-.7-1.45-.7H424.79c-1.71,0-3.06-1-3.06-2.32v-3.43c0-1.3,1.35-2.32,3.06-2.32H456.5c.87,0,1.45-.42,1.45-.7v-3.43c0-.28-.58-.7-1.45-.7H424.79c-1.71,0-3.06-1-3.06-2.32v-3.43c0-1.3,1.35-2.32,3.06-2.32H456.5c.87,0,1.45-.43,1.45-.7v-3.43c0-.28-.58-.7-1.45-.7H424.79c-1.71,0-3.06-1-3.06-2.33v-3.42c0-1.31,1.35-2.33,3.06-2.33H456.5c.87,0,1.45-.42,1.45-.7v-3.42c0-.28-.58-.71-1.45-.71H424.79c-1.71,0-3.06-1-3.06-2.32v-3.43c0-1.3,1.35-2.32,3.06-2.32h34a.81.81,0,0,1,0,1.62h-34c-.86,0-1.44.43-1.44.7v3.43c0,.28.58.7,1.44.7H456.5c1.72,0,3.07,1,3.07,2.33v3.42c0,1.31-1.35,2.33-3.07,2.33H424.79c-.86,0-1.44.42-1.44.7v3.42c0,.28.58.71,1.44.71H456.5c1.72,0,3.07,1,3.07,2.32v3.43c0,1.3-1.35,2.32-3.07,2.32H424.79c-.86,0-1.44.42-1.44.7v3.43c0,.28.58.7,1.44.7H456.5c1.72,0,3.07,1,3.07,2.32v3.43c0,1.3-1.35,2.32-3.07,2.32H424.79c-.86,0-1.44.42-1.44.7V255c0,.28.58.7,1.44.7H456.5c1.72,0,3.07,1,3.07,2.32v3.43c0,1.3-1.35,2.32-3.07,2.32H424.79c-.86,0-1.44.42-1.44.7v3.43c0,.28.58.7,1.44.7H456.5c1.72,0,3.07,1,3.07,2.32v3.43c0,1.3-1.35,2.33-3.07,2.33H424.79c-.86,0-1.44.42-1.44.7v3.42c0,.28.58.7,1.44.7H456.5c1.72,0,3.07,1,3.07,2.33v3.42C459.57,288.56,458.22,289.58,456.5,289.58Z"/>
      </g>
      <g id="BedroomHeater">
        <path class="cls-40" d="M247.74,632.68h-98.2a2.54,2.54,0,0,1-2.53-2.54v-84a2.54,2.54,0,0,1,2.53-2.54h98.2a44.53,44.53,0,0,1,0,89.06Z"/>
        <circle id="BedroomHeaterStatus" class="cls-41" cx="247.27" cy="588.15" r="41.58"/>
        <g id="BedroomHeaterButton">
          <circle class="cls-42" cx="247.27" cy="588.15" r="36.77"/>
          <g>
            <path class="cls-20" d="M250.26,585.62c1.9-1.75,9.42-9.9,8.83-17.58-.51-6.51-7.55-8.47-11.72-8.47s-10.7,2-11.21,8.47c-.58,7.53,5.89,15,8,17a4.24,4.24,0,0,1,3.13-1A4.13,4.13,0,0,1,250.26,585.62Z"/>
            <path class="cls-20" d="M243.09,588.15a4.75,4.75,0,0,1,.75-2.06c-2.75-.84-12.2-1.55-18.42,2.71-5.39,3.69-4.55,9.22-2.47,12.84s7.05,8.65,13,5.83c6.27-3,9.61-11.41,10.51-15A4.23,4.23,0,0,1,243.09,588.15Z"/>
            <path class="cls-20" d="M269.37,588.18c-6.17-4.23-15.28-2.84-18.12-2a4.33,4.33,0,0,1,.45,1.94c0,2.17-1.8,3.48-3.86,3.86.88,3.47,4.21,12.3,10.56,15.33,5.89,2.82,11.11-2,13.2-5.59S274.76,591.88,269.37,588.18Z"/>
            <path class="cls-20" d="M247.27,551.38A36.77,36.77,0,1,0,284,588.15,36.81,36.81,0,0,0,247.27,551.38Zm0,69.6a32.83,32.83,0,1,1,32.83-32.83A32.86,32.86,0,0,1,247.27,621Z"/>
          </g>
        </g>
        <g id="BedroomHeaterDown">
          <rect class="cls-49" x="152.65" y="594.4" width="33.35" height="33.35" rx="5.67"/>
          <g>
            <path class="cls-50" d="M179.44,628.76H159.22a7.59,7.59,0,0,1-7.58-7.58V601a7.59,7.59,0,0,1,7.58-7.58h20.22A7.59,7.59,0,0,1,187,601v20.22A7.59,7.59,0,0,1,179.44,628.76Zm-20.22-33.35a5.56,5.56,0,0,0-5.55,5.55v20.22a5.56,5.56,0,0,0,5.55,5.56h20.22a5.56,5.56,0,0,0,5.55-5.56V601a5.56,5.56,0,0,0-5.55-5.55Z"/>
            <path class="cls-50" d="M179.4,612.09H159.63a1,1,0,1,1,0-2H179.4a1,1,0,1,1,0,2Z"/>
          </g>
        </g>
        <g id="BedroomHeaterUp">
          <rect class="cls-49" x="152.65" y="548.55" width="33.35" height="33.35" rx="5.67"/>
          <g>
            <path class="cls-50" d="M179.44,582.92H159.22a7.59,7.59,0,0,1-7.58-7.58V555.12a7.59,7.59,0,0,1,7.58-7.58h20.22a7.59,7.59,0,0,1,7.58,7.58v20.22A7.59,7.59,0,0,1,179.44,582.92Zm-20.22-33.36a5.57,5.57,0,0,0-5.55,5.56v20.22a5.56,5.56,0,0,0,5.55,5.55h20.22a5.56,5.56,0,0,0,5.55-5.55V555.12a5.57,5.57,0,0,0-5.55-5.56Z"/>
            <path class="cls-50" d="M180.42,565.23a1,1,0,0,1-1,1h-8.87v8.86a1,1,0,0,1-1,1,1,1,0,0,1-1-1v-8.86h-8.88a1,1,0,0,1-1-1,1,1,0,0,1,1-1h8.88v-8.88a1,1,0,0,1,1-1,1,1,0,0,1,1,1v8.88h8.87A1,1,0,0,1,180.42,565.23Z"/>
          </g>
        </g>
        <circle id="BedroomHeaterTank" class="cls-46" cx="270.77" cy="546.85" r="7.12"/>
        <path id="BedroomHeaterArrow" class="cls-20" d="M369.94,486.51l-.14.07c-.81.34-1.64.67-2.45,1,0,0,0,0,0,0-29,11.15-60.78,6.52-81.26-11.33-5.66-4.93-11.27-11.06-14.16-18-2,1-3.93,2.06-5.83,3.27a1,1,0,0,1-1.57-.5c-1.4-5.28-1.62-11-2.17-16.49s-1.2-11.25-1.75-16.88a1.26,1.26,0,0,1,1.94-1.17c10.09,6.58,20,13.33,29.55,20.56.54.4.28,1.25-.31,1.62-2.64,1.69-5.33,3.31-8.08,4.79,4.49,6.5,8.72,12.8,15,18a67.71,67.71,0,0,0,20.74,11.81,78.39,78.39,0,0,0,23.68,4.43,104.5,104.5,0,0,0,12.85-.46c4.46-.4,9.29-.2,13.71-1.51h0A.41.41,0,0,1,369.94,486.51Zm-13,2.36a109.12,109.12,0,0,1-13.95.72A81,81,0,0,1,319,485.41a68.7,68.7,0,0,1-22.1-12.28c-6.42-5.37-12.73-12.2-15.65-20a.78.78,0,0,1,.61-1l.15-.1q3.76-1.95,7.36-4.18c-8.5-6.43-17.24-12.63-26.36-18.35,1,9.87,1.32,20.07,3.33,29.65a26.92,26.92,0,0,1,6.3-2.57,1.11,1.11,0,0,1,.85.41c2.56,3.76,4.76,7.66,7.73,11.15a64.84,64.84,0,0,0,9.47,9,69.14,69.14,0,0,0,24.34,12.08c14.34,3.88,30.3,3.48,45.67-.66C359.42,488.68,358.13,488.75,356.9,488.87Z"/>
      </g>
      <g id="MainHeater">
        <path class="cls-40" d="M1030.81,112.86h-98.2a2.54,2.54,0,0,1-2.53-2.54v-84a2.54,2.54,0,0,1,2.53-2.53h98.2a44.53,44.53,0,0,1,0,89.06Z"/>
        <circle id="MainHeaterStatus" class="cls-41" cx="1030.81" cy="68.73" r="41.58"/>
        <g id="MainHeaterButton">
          <circle class="cls-42" cx="1030.81" cy="68.73" r="36.77"/>
          <g>
            <path class="cls-20" d="M1033.8,66.2c1.9-1.76,9.42-9.9,8.82-17.58-.5-6.51-7.54-8.48-11.71-8.48s-10.7,2-11.21,8.48c-.58,7.52,5.88,15,8,17a4.24,4.24,0,0,1,3.13-1A4.13,4.13,0,0,1,1033.8,66.2Z"/>
            <path class="cls-20" d="M1026.62,68.73a4.67,4.67,0,0,1,.76-2.06c-2.75-.84-12.21-1.56-18.42,2.7-5.39,3.7-4.56,9.23-2.47,12.84s7,8.65,12.94,5.83c6.28-3,9.61-11.41,10.52-15A4.22,4.22,0,0,1,1026.62,68.73Z"/>
            <path class="cls-20" d="M1052.9,68.76c-6.17-4.23-15.27-2.84-18.11-2a4.54,4.54,0,0,1,.45,2c0,2.17-1.8,3.47-3.86,3.86.87,3.46,4.2,12.29,10.55,15.33,5.9,2.82,11.11-2,13.2-5.6S1058.29,72.46,1052.9,68.76Z"/>
            <path class="cls-20" d="M1030.81,32a36.77,36.77,0,1,0,36.76,36.77A36.81,36.81,0,0,0,1030.81,32Zm0,69.59a32.83,32.83,0,1,1,32.83-32.82A32.86,32.86,0,0,1,1030.81,101.55Z"/>
          </g>
        </g>
        <g id="MainHeaterDown">
          <rect class="cls-49" x="936.5" y="74.97" width="33.35" height="33.35" rx="5.67"/>
          <g>
            <path class="cls-50" d="M963.29,109.34H943.06a7.59,7.59,0,0,1-7.57-7.58V81.54A7.59,7.59,0,0,1,943.06,74h20.23a7.59,7.59,0,0,1,7.57,7.58v20.22A7.59,7.59,0,0,1,963.29,109.34ZM943.06,76a5.56,5.56,0,0,0-5.55,5.55v20.22a5.56,5.56,0,0,0,5.55,5.55h20.23a5.56,5.56,0,0,0,5.55-5.55V81.54A5.56,5.56,0,0,0,963.29,76Z"/>
            <path class="cls-50" d="M963.25,92.66H943.47a1,1,0,1,1,0-2h19.78a1,1,0,0,1,0,2Z"/>
          </g>
        </g>
        <g id="MainHeaterUp">
          <rect class="cls-49" x="936.5" y="29.13" width="33.35" height="33.35" rx="5.67"/>
          <g>
            <path class="cls-50" d="M963.29,63.49H943.06a7.58,7.58,0,0,1-7.57-7.57V35.69a7.59,7.59,0,0,1,7.57-7.58h20.23a7.59,7.59,0,0,1,7.57,7.58V55.92A7.58,7.58,0,0,1,963.29,63.49ZM943.06,30.14a5.56,5.56,0,0,0-5.55,5.55V55.92a5.56,5.56,0,0,0,5.55,5.55h20.23a5.56,5.56,0,0,0,5.55-5.55V35.69a5.56,5.56,0,0,0-5.55-5.55Z"/>
            <path class="cls-50" d="M964.26,45.8a1,1,0,0,1-1,1h-8.87v8.87a1,1,0,1,1-2,0V46.82h-8.88a1,1,0,0,1-1-1,1,1,0,0,1,1-1h8.88V35.92a1,1,0,0,1,2,0V44.8h8.87A1,1,0,0,1,964.26,45.8Z"/>
          </g>
        </g>
        <path id="MainHeaterArrow" class="cls-20" d="M1077.8,185.85a.84.84,0,0,1,.06.14c.26.85.5,1.7.73,2.54v0c8.11,30,.24,61.12-19.63,79.67-5.48,5.12-12.16,10.07-19.33,12.24.82,2.07,1.64,4.12,2.65,6.13a1,1,0,0,1-.65,1.51c-5.41.85-11.11.48-16.63.47s-11.31,0-17,0a1.25,1.25,0,0,1-.95-2c7.58-9.37,15.3-18.55,23.48-27.29.45-.49,1.27-.15,1.58.48,1.41,2.79,2.74,5.64,3.94,8.53,6.92-3.81,13.62-7.36,19.45-13a67.86,67.86,0,0,0,13.87-19.42,78.54,78.54,0,0,0,6.84-23.1,107,107,0,0,0,.86-12.83c.06-4.48.75-9.27-.09-13.8h0A.41.41,0,0,1,1077.8,185.85Zm1,13.21a111.31,111.31,0,0,1-.72,13.95,81,81,0,0,1-6.61,23.35A68.77,68.77,0,0,1,1057,257.09c-6,5.83-13.45,11.4-21.54,13.5-.48.12-.81-.26-.9-.7l-.09-.16c-1-2.63-2.16-5.21-3.39-7.75-7.28,7.79-14.34,15.85-21,24.33,9.92.07,20.1.75,29.84-.26a26.93,26.93,0,0,1-1.91-6.54.61.61,0,0,1,.32-.66.55.55,0,0,1,.17-.14c4-2.16,8.11-3.94,11.88-6.54a65.29,65.29,0,0,0,10-8.49,69.26,69.26,0,0,0,14.51-23c5.33-13.87,6.57-29.79,4-45.5C1078.88,196.53,1078.82,197.82,1078.82,199.06Z"/>
        <circle id="MainHeaterTank" class="cls-46" cx="1054.68" cy="27.92" r="7.12"/>
      </g>
    </g>
    <g id="OffSwitch">
      <g id="LightsOffGroup">
        <circle class="cls-40" cx="630.38" cy="68.73" r="44.53"/>
        <circle id="LightsOffStatus" class="cls-51" cx="630.38" cy="68.73" r="41.58"/>
        <g id="LightsOffButton">
          <circle class="cls-42" cx="630.38" cy="68.73" r="36.77"/>
          <g>
            <path class="cls-52" d="M630.38,32a36.77,36.77,0,1,0,36.76,36.77A36.81,36.81,0,0,0,630.38,32Zm0,69.59A32.83,32.83,0,1,1,663.2,68.73,32.86,32.86,0,0,1,630.38,101.55Z"/>
            <path class="cls-51" d="M629.87,45.89c-7.67,0-13,5.34-13,13a13.87,13.87,0,0,0,3.65,9.38c1.46,1.59,1.36,3.68,1.36,5.9v.75a2.94,2.94,0,0,0,1.69,2.66v1.92H624a1.27,1.27,0,0,0,0,2.53h-.47v2.34c0,2.09,1.7,2.89,3.79,2.89h5.06c2.1,0,3.8-.8,3.8-2.89V82.05h-.48a1.27,1.27,0,1,0,0-2.53h.48V77.6a2.94,2.94,0,0,0,1.69-2.66v-.75c0-2.22-.1-4.31,1.35-5.9a13.83,13.83,0,0,0,3.65-9.38C642.89,51.23,637.55,45.89,629.87,45.89Zm3.8,38.5c0,.69-.57.36-1.27.36h-5.06c-.7,0-1.26.33-1.26-.36V82.05h7.59Zm0-4.87h-7.59V77.89h7.59Zm3.71-12.94c-1.89,2.06-2,4.76-2,7.61v.75a.42.42,0,0,1-.43.42H624.81a.42.42,0,0,1-.42-.42v-.75c0-2.85-.14-5.55-2-7.61a11.3,11.3,0,0,1-3-7.67c0-6.28,4.21-10.49,10.49-10.49s10.49,4.21,10.49,10.49a11.34,11.34,0,0,1-3,7.67Z"/>
            <rect class="cls-52" x="593.89" y="65.41" width="69.67" height="4.94" transform="translate(157.58 489.7) rotate(-48)"/>
          </g>
        </g>
      </g>
      <g id="AllOffGroup">
        <circle class="cls-40" cx="740.29" cy="68.73" r="44.53"/>
        <circle id="AllOffStatus" class="cls-51" cx="740.29" cy="68.73" r="41.58"/>
        <g id="AllOffButon">
          <circle class="cls-42" cx="740.29" cy="68.73" r="36.77"/>
          <g>
            <path class="cls-52" d="M740.29,32a36.77,36.77,0,1,0,36.77,36.77A36.8,36.8,0,0,0,740.29,32Zm0,69.59a32.83,32.83,0,1,1,32.83-32.82A32.86,32.86,0,0,1,740.29,101.55Z"/>
            <path class="cls-53" d="M738.88,85.15a12.4,12.4,0,0,1-9.43-3.81c-2.35-2.6-3.34-6.26-2.89-10.58,1-9.3,11-21.77,11.37-22.3l1-1.19.94,1.21c.42.53,10.22,13.15,11.73,22.21a12.11,12.11,0,0,1-2.43,10.13A13.29,13.29,0,0,1,738.88,85.15Zm0-33.92C736.36,54.58,729.71,64,729,71c-.38,3.62.41,6.63,2.28,8.71a9.9,9.9,0,0,0,7.63,3,10.87,10.87,0,0,0,8.4-3.48,9.76,9.76,0,0,0,1.89-8.16h0C748,64.21,741.36,54.63,738.87,51.23Z"/>
            <rect class="cls-52" x="705.45" y="66.26" width="69.67" height="4.94" transform="translate(193.86 572.88) rotate(-48)"/>
          </g>
        </g>
      </g>
      <g id="AllOffGroup-2" data-name="AllOffGroup">
        <circle class="cls-40" cx="850.28" cy="68.73" r="44.53"/>
        <circle id="AllOffStatus-2" data-name="AllOffStatus" class="cls-51" cx="850.28" cy="68.73" r="41.58"/>
        <g id="AllOffButon-2" data-name="AllOffButon">
          <circle class="cls-42" cx="850.28" cy="68.73" r="36.77"/>
          <g>
            <path class="cls-52" d="M850.28,32A36.77,36.77,0,1,0,887,68.73,36.81,36.81,0,0,0,850.28,32Zm0,69.59A32.83,32.83,0,1,1,883.1,68.73,32.86,32.86,0,0,1,850.28,101.55Z"/>
            <g class="cls-54">
              <g>
                <path class="cls-20" d="M850.64,67.88a2.63,2.63,0,0,0,2.59-2.59v-13a2.46,2.46,0,0,0-.77-1.82,2.54,2.54,0,0,0-3.64,0,2.46,2.46,0,0,0-.77,1.82v13a2.63,2.63,0,0,0,2.59,2.59Z"/>
                <path class="cls-20" d="M864.57,60.93A15.33,15.33,0,0,0,860,55.46a2.5,2.5,0,0,0-1.92-.5,2.4,2.4,0,0,0-1.71,1,2.47,2.47,0,0,0-.49,1.91,2.54,2.54,0,0,0,1,1.72,10.38,10.38,0,0,1,3.07,3.66A10.25,10.25,0,0,1,861,67.88a10,10,0,0,1-.82,4,10.13,10.13,0,0,1-5.53,5.53,10.15,10.15,0,0,1-8,0,10.27,10.27,0,0,1-3.31-2.21,10.62,10.62,0,0,1-2.22-3.32,10,10,0,0,1-.82-4,10.25,10.25,0,0,1,1.08-4.62,10.38,10.38,0,0,1,3.07-3.66,2.54,2.54,0,0,0,1-1.72,2.43,2.43,0,0,0-.49-1.91,2.38,2.38,0,0,0-1.69-1,2.55,2.55,0,0,0-1.94.5,15.4,15.4,0,0,0-6.22,12.42,15,15,0,0,0,1.24,6,15.59,15.59,0,0,0,3.32,5,15.9,15.9,0,0,0,5,3.33,15.44,15.44,0,0,0,12.08,0,15.78,15.78,0,0,0,5-3.33,15.59,15.59,0,0,0,3.32-5,15,15,0,0,0,1.24-6A15.31,15.31,0,0,0,864.57,60.93Z"/>
              </g>
            </g>
            <rect class="cls-52" x="815.44" y="66.26" width="69.67" height="4.94" transform="translate(230.26 654.62) rotate(-48)"/>
          </g>
        </g>
      </g>
    </g>
    <g id="Lights_ON" data-name="Lights ON">
      <g id="LightsBedroom" class="cls-55">
        <rect class="cls-41" x="77.66" y="159.25" width="100.27" height="337.52"/>
      </g>
      <g id="LightsBedroomMain" class="cls-55">
        <circle class="cls-41" cx="251.42" cy="328.01" r="97.83"/>
      </g>
      <g id="LightsBath" class="cls-55">
        <rect class="cls-41" x="318.61" y="157.29" width="282.61" height="140.55"/>
      </g>
      <g id="LightsCoridor" class="cls-55">
        <rect class="cls-41" x="366.22" y="300.29" width="178.34" height="84.83"/>
      </g>
      <g id="LightsKitchen" class="cls-55">
        <rect class="cls-41" x="606.97" y="415.79" width="220.47" height="86.43"/>
      </g>
      <g id="LightsLeftPassanger" class="cls-55">
        <rect class="cls-41" x="702.67" y="154.88" width="220.25" height="85.67"/>
      </g>
      <g id="LightsRightPassanger" class="cls-55">
        <rect class="cls-41" x="887.91" y="415.79" width="249.29" height="86.43"/>
      </g>
      <g id="LightsSalon2" class="cls-55">
        <circle class="cls-41" cx="703.55" cy="331.55" r="103.16"/>
      </g>
      <g id="LightsSalon1" class="cls-55">
        <circle class="cls-41" cx="936.08" cy="328.01" r="100.6"/>
      </g>
      <g id="LightsOutside" class="cls-55">
        <polygon class="cls-41" points="1191.34 605.21 999.48 635.4 999.48 517.17 1191.34 517.17 1191.34 605.21"/>
      </g>
      <g id="LightsNeon" class="cls-55">
        <rect class="cls-41" x="1054.39" y="305.46" width="110.77" height="49.2"/>
      </g>
    </g>
    <g id="Temp">
      <g id="Temp4">
        <rect class="cls-40" x="228.52" y="159.25" width="76.9" height="47.46" rx="5.67"/>
        <text id="TempBedroom" class="cls-45" transform="translate(237.45 195.79)">21</text>
        <path class="cls-43" d="M287.56,174.38a5.7,5.7,0,1,1,11.39,0,5.61,5.61,0,0,1-.75,2.84,5.54,5.54,0,0,1-2.08,2.08,5.69,5.69,0,0,1-2.87.77,5.65,5.65,0,0,1-5.69-5.69Zm2.1,0a3.41,3.41,0,0,0,1.07,2.54,3.53,3.53,0,0,0,2.55,1,3.59,3.59,0,1,0,0-7.18,3.51,3.51,0,0,0-2.57,1A3.46,3.46,0,0,0,289.66,174.38Z"/>
      </g>
      <g id="Temp3">
        <rect class="cls-40" x="321.8" y="159.25" width="76.9" height="47.46" rx="5.67"/>
        <text id="TempBathroom" class="cls-45" transform="translate(330.23 195.79)">22</text>
        <path class="cls-43" d="M381.56,174.38a5.7,5.7,0,1,1,11.39,0,5.61,5.61,0,0,1-.75,2.84,5.54,5.54,0,0,1-2.08,2.08,5.69,5.69,0,0,1-2.87.77,5.63,5.63,0,0,1-5.69-5.69Zm2.1,0a3.41,3.41,0,0,0,1.07,2.54,3.53,3.53,0,0,0,2.55,1,3.55,3.55,0,0,0,3.57-3.58,3.53,3.53,0,0,0-1-2.57,3.45,3.45,0,0,0-2.54-1,3.51,3.51,0,0,0-2.57,1A3.46,3.46,0,0,0,383.66,174.38Z"/>
      </g>
      <g id="Temp2">
        <rect class="cls-40" x="627.23" y="159.25" width="76.9" height="47.46" rx="5.67"/>
        <text id="TempSalon" class="cls-45" transform="translate(636.17 195.79)">19</text>
        <path class="cls-43" d="M687.68,174.38a5.7,5.7,0,1,1,11.39,0,5.7,5.7,0,0,1-5.71,5.69,5.63,5.63,0,0,1-5.68-5.69Zm2.1,0a3.41,3.41,0,0,0,1.07,2.54,3.49,3.49,0,0,0,2.55,1,3.57,3.57,0,0,0,3.57-3.58,3.5,3.5,0,0,0-1-2.57,3.43,3.43,0,0,0-2.53-1,3.57,3.57,0,0,0-3.62,3.6Z"/>
      </g>
      <g id="Temp1">
        <rect class="cls-40" x="210.72" y="23.96" width="127.58" height="47.46" rx="5.67"/>
        <text id="TempOutside" class="cls-45" transform="translate(260.17 60.5)">15</text>
        <path class="cls-43" d="M321.84,37.75a5.7,5.7,0,1,1,11.39,0,5.62,5.62,0,0,1-.75,2.85,5.51,5.51,0,0,1-2.08,2.07,5.69,5.69,0,0,1-2.87.77,5.65,5.65,0,0,1-5.69-5.69Zm2.1,0A3.41,3.41,0,0,0,325,40.29a3.54,3.54,0,0,0,2.55,1.05,3.47,3.47,0,0,0,2.52-1,3.41,3.41,0,0,0,1.05-2.55,3.52,3.52,0,0,0-3.57-3.6,3.55,3.55,0,0,0-2.57,1A3.48,3.48,0,0,0,323.94,37.75Z"/>
      </g>
      <g>
        <path class="cls-20" d="M234.74,55.41V41.72a1.08,1.08,0,0,0-2.16,0V55.41a2.69,2.69,0,1,0,2.16,0Z"/>
        <path class="cls-20" d="M238,53.06V34.18a4.31,4.31,0,0,0-8.62,0V53.06a6.46,6.46,0,1,0,8.62,0Zm-4.31,9.13a4.32,4.32,0,0,1-4.31-4.31,4.27,4.27,0,0,1,1.73-3.45,1.07,1.07,0,0,0,.43-.86V34.18a2.15,2.15,0,0,1,4.3,0V53.57a1.07,1.07,0,0,0,.43.86A4.27,4.27,0,0,1,238,57.88,4.32,4.32,0,0,1,233.66,62.19Z"/>
      </g>
    </g>
  </g>
</svg>
