<svg xmlns="http://www.w3.org/2000/svg" xmlns:xlink="http://www.w3.org/1999/xlink" viewBox="0 0 1280 608.68">
  <defs>
    <style>

    </style>
    <linearGradient id="Pecan" x1="393.76" y1="327.81" x2="396.75" y2="327.81" gradientUnits="userSpaceOnUse">
      <stop offset="0.01" stop-color="#aa7541"/>
      <stop offset="0.19" stop-color="#845636"/>
      <stop offset="0.34" stop-color="#ae7640"/>
      <stop offset="0.49" stop-color="#aa7541"/>
      <stop offset="0.63" stop-color="#845636"/>
      <stop offset="0.97" stop-color="#ae7640"/>
    </linearGradient>
    <linearGradient id="Pecan-2" data-name="Pecan" x1="442.16" y1="285.81" x2="535.3" y2="285.81" gradientTransform="translate(202.91 774.54) rotate(-90)" xlink:href="#Pecan"/>
    <linearGradient id="Pecan-3" data-name="Pecan" x1="652.26" y1="412.97" x2="824.29" y2="412.97" xlink:href="#Pecan"/>
    <linearGradient id="Pecan-4" data-name="Pecan" x1="824.29" y1="415.16" x2="857.36" y2="415.16" xlink:href="#Pecan"/>
    <linearGradient id="Cast_Iron" data-name="Cast Iron" x1="751.93" y1="404.59" x2="816.88" y2="404.59" gradientUnits="userSpaceOnUse">
      <stop offset="0.01" stop-color="#84868c"/>
      <stop offset="0.53" stop-color="#979798"/>
      <stop offset="1" stop-color="#5c5c62"/>
    </linearGradient>
    <linearGradient id="Cast_Iron-2" x1="757.54" y1="391.92" x2="811.04" y2="391.92" xlink:href="#Cast_Iron"/>
    <linearGradient id="Pecan-5" data-name="Pecan" x1="466.66" y1="166.18" x2="520.68" y2="166.18" xlink:href="#Pecan"/>
    <linearGradient id="Cast_Iron-3" x1="471.5" y1="166.11" x2="515.84" y2="166.11" xlink:href="#Cast_Iron"/>
    <linearGradient id="Pecan-6" data-name="Pecan" x1="799.28" y1="214.51" x2="890.39" y2="214.51" xlink:href="#Pecan"/>
    <linearGradient id="Pecan-7" data-name="Pecan" x1="753.72" y1="214.51" x2="799.28" y2="214.51" xlink:href="#Pecan"/>
    <linearGradient id="Pecan-8" data-name="Pecan" x1="890.39" y1="214.51" x2="935.95" y2="214.51" xlink:href="#Pecan"/>
  </defs>
  <g class="cls-1">
    <g id="Main">
      <g>
        <rect x="907.75" y="473.36" width="121.1" height="6.02"/>
        <path class="cls-2" d="M1028.1,474.12v4.51H908.51v-4.51H1028.1m1.5-1.51H907v7.52h122.6v-7.52Z"/>
      </g>
      <g>
        <rect x="369.09" y="473.36" width="121.09" height="6.02"/>
        <path class="cls-2" d="M489.43,474.12v4.51H369.84v-4.51H489.43m1.5-1.51H368.33v7.52h122.6v-7.52Z"/>
      </g>
      <g>
        <rect x="907.75" y="133.14" width="121.1" height="6.02"/>
        <path class="cls-2" d="M1028.1,133.9v4.5H908.51v-4.5H1028.1m1.5-1.51H907v7.52h122.6v-7.52Z"/>
      </g>
      <g>
        <rect x="369.09" y="133.14" width="121.09" height="6.02"/>
        <path class="cls-2" d="M489.43,133.9v4.5H369.84v-4.5H489.43m1.5-1.51H368.33v7.52h122.6v-7.52Z"/>
      </g>
      <path class="cls-3" d="M1218.55,459.05c-12,12.08-38.75,13.62-38.75,13.62H209.65s-17.85.48-23.77,0c-13.61-1.11-38.89-6.39-51.27-18.77C114,433.27,115.84,356,115.84,356V245.85s-1.91-68.79,16.89-87.59c12.38-12.39,39.1-17.68,53.15-18.78,5.53-.43,22.21,0,22.21,0H1179.8s27.74-.19,39.73,11.89c29.34,29.57,27.06,154.71,27.06,154.71S1247.89,429.48,1218.55,459.05Z"/>
      <polygon class="cls-4" points="1047.71 468.6 1075.93 439.51 1075.93 351.91 1056.54 330.96 906.96 330.96 901.21 359.12 397.52 359.12 397.52 281.22 1192.94 281.22 1193.13 325.03 1193.4 467.65 1047.71 468.6"/>
      <path class="cls-5" d="M1181.15,144H201.46s-48.81,2.94-48.81,15.76l.06-.45V452.85c0,12.82,48.81,15.75,48.81,15.75h979.69"/>
      <line class="cls-6" x1="249.38" y1="144.02" x2="249.38" y2="468.6"/>
      <polyline class="cls-6" points="288.18 144.02 288.18 409.79 248.29 468.6"/>
      <path class="cls-7" d="M388.22,468.6V315.35H378.15V144H201.75s-48.81,2.94-48.81,15.76l.07-.45V452.85c0,12.82,48.8,15.75,48.8,15.75Z"/>
      <rect class="cls-7" x="1078.44" y="370.37" width="114.82" height="39.42"/>
      <rect class="cls-8" x="351.76" y="281.22" width="45.75" height="78.75"/>
      <polyline class="cls-6" points="280.27 424.33 362.09 424.33 362.09 370.37 287.78 370.37"/>
      <polygon class="cls-9" points="1075.93 409.79 1193.25 409.79 1193.25 472.88 1056.84 472.88 1056.84 459.2 1075.93 439.51 1075.93 409.79"/>
      <polygon class="cls-10" points="1047.71 468.6 1075.93 439.51 1075.93 351.91 1056.54 330.96 906.96 330.96 901.21 359.12 288.18 359.12 288.18 281.22 1192.94 281.22 1193.13 325.03 1193.4 467.65 1047.71 468.6"/>
      <rect class="cls-11" x="921.48" y="360.29" width="93.65" height="109.82"/>
      <path class="cls-12" d="M1195.87,470.11c7.92-1.95,17-5.31,22.68-11.06,29.34-29.57,28-153,28-153s2.28-125.14-27.06-154.71c-12-12.08-39.73-11.89-39.73-11.89h-8.45V291.63l22.06,24V470.67Z"/>
      <rect class="cls-11" x="921.48" y="144.02" width="93.65" height="104.8"/>
      <rect class="cls-11" x="380.89" y="360.29" width="86.83" height="109.82"/>
      <rect class="cls-11" x="380.89" y="141.11" width="86.83" height="140.11"/>
      <polyline class="cls-13" points="446.38 281.02 380.89 281.02 380.89 146.14 650.32 146.14 650.32 281.02 530.26 281.02"/>
      <polyline class="cls-13" points="650.32 359.12 650.32 466.01 391.04 466.01 391.04 359.12"/>
      <polyline class="cls-13" points="650.32 359.12 650.32 466.01 569.56 466.01 569.56 359.12"/>
      <line class="cls-13" x1="1056.03" y1="336.2" x2="1056.03" y2="468.6"/>
      <rect class="cls-14" x="530.26" y="146.14" width="117.01" height="135.08"/>
      <rect class="cls-15" x="1156.3" y="144.02" width="29.35" height="129.88"/>
      <path class="cls-16" d="M1183.49,209.08a34.23,34.23,0,0,0-10.85-23.33,31.92,31.92,0,0,0-23.59-8.62c-18,1-31.74,17-30.71,35.55A34.18,34.18,0,0,0,1129.19,236a31.92,31.92,0,0,0,21.81,8.67c.59,0,1.19,0,1.78-.05,17.33-1,30.76-15.83,30.76-33.6C1183.54,210.39,1183.52,209.73,1183.49,209.08Zm-34.33-29.69c.56,0,1.11,0,1.66,0a28.45,28.45,0,0,1,5.77.58L1148.85,204a6.55,6.55,0,0,0-6,5.83l-22.32,1.57C1120.2,194.54,1132.81,180.29,1149.16,179.39Zm3.5,63a29.6,29.6,0,0,1-21.94-8,31.85,31.85,0,0,1-10-20.67l22.37-1.59a6.51,6.51,0,0,0,6.32,4.94,5.62,5.62,0,0,0,.92-.07l14,22.29A29.17,29.17,0,0,1,1152.66,242.38Zm13.61-4.23-13.76-21.92a6.53,6.53,0,0,0-1.36-12l7.65-23.8a30.08,30.08,0,0,1,12.3,7,31.79,31.79,0,0,1,7.17,9.85,32.79,32.79,0,0,1,3,11.93A31.71,31.71,0,0,1,1166.27,238.15Z"/>
      <rect class="cls-17" x="393.76" y="285.81" width="2.99" height="84"/>
      <rect class="cls-18" x="487.23" y="239.25" width="2.99" height="93.14" transform="translate(774.54 -202.91) rotate(90)"/>
      <rect class="cls-12" x="401.48" y="362.32" width="163.53" height="103.7"/>
      <rect class="cls-19" x="829.68" y="139.46" width="207.85" height="3.35"/>
      <rect class="cls-19" x="1068.11" y="139.48" width="113.03" height="3.33"/>
      <rect class="cls-19" x="691.97" y="139.46" width="129.25" height="3.35"/>
      <rect class="cls-19" x="185.88" y="139.48" width="107.87" height="3.41"/>
      <rect class="cls-20" x="254.22" y="473.3" width="107.87" height="4.54"/>
      <rect class="cls-20" x="1074.18" y="472.34" width="107.87" height="4.54"/>
      <rect class="cls-19" x="829.68" y="469.31" width="207.85" height="3.35"/>
      <rect class="cls-19" x="691.97" y="469.31" width="129.25" height="3.35"/>
      <rect class="cls-19" x="199.93" y="469.19" width="38.46" height="3.18"/>
    </g>
    <g id="Kitchen">
      <path class="cls-21" d="M669.27,360h138a17,17,0,0,1,17,17v89a0,0,0,0,1,0,0h-172a0,0,0,0,1,0,0V377A17,17,0,0,1,669.27,360Z"/>
      <rect class="cls-22" x="824.29" y="364.35" width="33.07" height="101.62"/>
      <g>
        <rect class="cls-23" x="574.83" y="364.35" width="69.13" height="69.13"/>
        <rect class="cls-23" x="574.83" y="360.29" width="69.13" height="4.06"/>
      </g>
      <g>
        <rect class="cls-24" x="751.93" y="363.51" width="64.95" height="82.17" rx="26"/>
        <rect class="cls-25" x="755.67" y="367.01" width="57.24" height="49.82" rx="23.17"/>
        <rect class="cls-26" x="757.54" y="368.64" width="53.5" height="46.56" rx="21.65"/>
        <circle class="cls-25" cx="784.29" cy="389.88" r="4.18"/>
      </g>
    </g>
    <g id="Bath">
      <path class="cls-27" d="M406.41,147.55H449a0,0,0,0,1,0,0v42.27A14.17,14.17,0,0,1,434.86,204H420.58a14.17,14.17,0,0,1-14.17-14.17V147.55A0,0,0,0,1,406.41,147.55Z"/>
      <rect class="cls-28" x="466.66" y="149.29" width="54.02" height="33.79"/>
      <rect class="cls-29" x="406.41" y="147.66" width="42.62" height="16.68"/>
      <rect class="cls-30" x="531.7" y="152.4" width="108.91" height="112.87"/>
      <g>
        <rect class="cls-25" x="469.95" y="151.43" width="47.45" height="29.36" rx="13.65"/>
        <rect class="cls-31" x="471.5" y="152.39" width="44.34" height="27.44" rx="12.76"/>
        <circle class="cls-25" cx="493.67" cy="164.07" r="4.18"/>
      </g>
      <circle class="cls-25" cx="544.35" cy="164.07" r="4.18"/>
    </g>
    <g id="Bedroom">
      <rect class="cls-32" x="156.31" y="166.43" width="196.86" height="280.09"/>
      <rect class="cls-33" x="161.09" y="173.54" width="186.23" height="266.05" rx="20.61"/>
    </g>
    <g id="Seats">
      <g>
        <rect class="cls-34" x="799.28" y="148" width="91.11" height="133.02"/>
        <rect class="cls-35" x="753.72" y="148" width="45.56" height="133.02"/>
        <rect class="cls-36" x="890.39" y="148" width="45.56" height="133.02"/>
      </g>
      <g>
        <path class="cls-37" d="M1063.19,178.14h40.22a14.17,14.17,0,0,1,14.17,14.17v37a14.17,14.17,0,0,1-14.17,14.17h-40.22a0,0,0,0,1,0,0V178.14a0,0,0,0,1,0,0Z"/>
        <rect class="cls-37" x="1040.15" y="178.14" width="23.04" height="65.34"/>
        <rect class="cls-38" x="1063.19" y="192.84" width="54.02" height="35.34"/>
        <rect class="cls-38" x="1040.15" y="192.84" width="23.04" height="35.34"/>
        <rect class="cls-39" x="1048.9" y="178.14" width="14.28" height="65.34"/>
      </g>
      <g>
        <path class="cls-37" d="M1079.92,355.24h35.9A14.17,14.17,0,0,1,1130,369.41v37a14.17,14.17,0,0,1-14.17,14.17h-35.9a0,0,0,0,1,0,0V355.24A0,0,0,0,1,1079.92,355.24Z"/>
        <rect class="cls-37" x="1058.71" y="355.24" width="21.21" height="65.34"/>
        <rect class="cls-38" x="1079.92" y="369.93" width="49.73" height="35.34"/>
        <rect class="cls-38" x="1058.71" y="369.93" width="21.21" height="35.34"/>
        <rect class="cls-39" x="1066.78" y="355.24" width="13.15" height="65.34"/>
      </g>
      <g>
        <path class="cls-37" d="M939.87,215.24h38.69a14.17,14.17,0,0,1,14.17,14.17v37a14.17,14.17,0,0,1-14.17,14.17H939.87a0,0,0,0,1,0,0V215.24A0,0,0,0,1,939.87,215.24Z" transform="translate(1932.6 495.82) rotate(180)"/>
        <rect class="cls-37" x="992.73" y="215.24" width="22.39" height="65.34" transform="translate(2007.86 495.82) rotate(180)"/>
        <rect class="cls-38" x="939.87" y="230.4" width="52.87" height="35.34"/>
        <rect class="cls-38" x="992.73" y="230.4" width="22.39" height="35.34"/>
        <rect class="cls-39" x="992.73" y="215.24" width="13.88" height="65.34"/>
      </g>
      <g>
        <path class="cls-37" d="M962.26,330.83H1001A14.17,14.17,0,0,1,1015.13,345v37A14.17,14.17,0,0,1,1001,396.18H962.26a0,0,0,0,1,0,0V330.83a0,0,0,0,1,0,0Z"/>
        <rect class="cls-37" x="939.87" y="330.83" width="22.39" height="65.34"/>
        <rect class="cls-38" x="962.26" y="346.14" width="52.87" height="35.34"/>
        <rect class="cls-38" x="939.87" y="346.14" width="22.39" height="35.34"/>
        <rect class="cls-39" x="948.08" y="330.83" width="13.88" height="65.34"/>
      </g>
      <g>
        <path class="cls-37" d="M962.26,399.46H1001a14.17,14.17,0,0,1,14.17,14.17v37A14.17,14.17,0,0,1,1001,464.81H962.26a0,0,0,0,1,0,0V399.46a0,0,0,0,1,0,0Z"/>
        <rect class="cls-37" x="939.87" y="399.46" width="22.39" height="65.34"/>
        <rect class="cls-38" x="962.26" y="414.63" width="52.87" height="35.34"/>
        <rect class="cls-38" x="939.87" y="414.63" width="22.39" height="35.34"/>
        <rect class="cls-39" x="948.08" y="399.24" width="13.88" height="65.34"/>
      </g>
      <g>
        <path class="cls-37" d="M695.76,146.59h38.69a14.17,14.17,0,0,1,14.17,14.17v37a14.17,14.17,0,0,1-14.17,14.17H695.76a0,0,0,0,1,0,0V146.59a0,0,0,0,1,0,0Z"/>
        <rect class="cls-37" x="673.37" y="146.59" width="22.39" height="65.34"/>
        <rect class="cls-38" x="695.76" y="161.9" width="52.87" height="35.34"/>
        <rect class="cls-38" x="673.37" y="161.9" width="22.39" height="35.34"/>
        <rect class="cls-39" x="681.58" y="146.59" width="13.88" height="65.34"/>
      </g>
      <g>
        <path class="cls-37" d="M695.76,215.22h38.69a14.17,14.17,0,0,1,14.17,14.17v37a14.17,14.17,0,0,1-14.17,14.17H695.76a0,0,0,0,1,0,0V215.22a0,0,0,0,1,0,0Z"/>
        <rect class="cls-37" x="673.37" y="215.22" width="22.39" height="65.34"/>
        <rect class="cls-38" x="695.76" y="230.39" width="52.87" height="35.34"/>
        <rect class="cls-38" x="673.37" y="230.39" width="22.39" height="35.34"/>
        <rect class="cls-39" x="681.58" y="215" width="13.88" height="65.34"/>
      </g>
      <g>
        <path class="cls-37" d="M939.87,146.61h38.69a14.17,14.17,0,0,1,14.17,14.17v37A14.17,14.17,0,0,1,978.56,212H939.87a0,0,0,0,1,0,0V146.61A0,0,0,0,1,939.87,146.61Z" transform="translate(1932.6 358.56) rotate(180)"/>
        <rect class="cls-37" x="992.73" y="146.61" width="22.39" height="65.34" transform="translate(2007.86 358.56) rotate(180)"/>
        <rect class="cls-38" x="939.87" y="161.91" width="52.87" height="35.34"/>
        <rect class="cls-38" x="992.73" y="161.91" width="22.39" height="35.34"/>
        <rect class="cls-39" x="992.73" y="146.61" width="13.88" height="65.34"/>
      </g>
    </g>
    <g id="Water">
      <g id="WaterHeater">
        <circle class="cls-40" cx="488.77" cy="547.66" r="41.35"/>
        <g id="WaterHeaterStatus">
          <circle class="cls-41" cx="488.77" cy="547.66" r="36.77"/>
        </g>
        <g>
          <g>
            <circle class="cls-42" cx="488.77" cy="547.66" r="34.14"/>
            <path class="cls-20" d="M488.77,513.52a34.14,34.14,0,1,0,34.14,34.14A34.18,34.18,0,0,0,488.77,513.52Zm0,64.62a30.48,30.48,0,1,1,30.49-30.48A30.51,30.51,0,0,1,488.77,578.14Z"/>
          </g>
          <path class="cls-20" d="M501.75,552.61c1.56,9.34-4.95,15-13.19,15s-13.76-5.57-12.77-15c1.1-10.4,12.77-24.89,12.77-24.89S500.06,542.43,501.75,552.61Z"/>
          <path class="cls-43" d="M488.77,563.81a.94.94,0,0,1,0-1.88,8.28,8.28,0,0,0,8.28-8.28.94.94,0,0,1,1.88,0A10.16,10.16,0,0,1,488.77,563.81Z"/>
        </g>
      </g>
      <g id="WaterPump">
        <path class="cls-40" d="M710.27,506.31H818.46a2.36,2.36,0,0,1,2.35,2.35v78a2.36,2.36,0,0,1-2.35,2.35H710.27a41.35,41.35,0,0,1,0-82.7Z"/>
        <g id="Water1Status">
          <circle class="cls-41" cx="710.36" cy="547.66" r="36.77"/>
        </g>
        <g>
          <g>
            <circle class="cls-42" cx="710.36" cy="547.66" r="34.14"/>
            <path class="cls-44" d="M710.36,513.52a34.14,34.14,0,1,0,34.14,34.14A34.19,34.19,0,0,0,710.36,513.52Zm0,64.62a30.48,30.48,0,1,1,30.48-30.48A30.52,30.52,0,0,1,710.36,578.14Z"/>
          </g>
          <path class="cls-44" d="M723.34,552.61c1.55,9.34-5,15-13.2,15s-13.76-5.57-12.76-15c1.09-10.4,12.76-24.89,12.76-24.89S721.64,542.43,723.34,552.61Z"/>
          <path class="cls-43" d="M710.36,563.81a.94.94,0,1,1,0-1.88,8.28,8.28,0,0,0,8.27-8.28.95.95,0,0,1,1.89,0A10.17,10.17,0,0,1,710.36,563.81Z"/>
        </g>
        <text id="_100LTank" data-name="100LTank" class="cls-45" transform="translate(750.65 557.85)">100</text>
        <path class="cls-43" d="M801.82,578.55V568.06H803v9.39h4.62v1.1Z"/>
        <circle id="WaterEmpty1" class="cls-46" cx="821.22" cy="506.31" r="6.61"/>
      </g>
      <g id="WaterTank">
        <path class="cls-40" d="M884.55,506.31H992.74a2.36,2.36,0,0,1,2.36,2.35v78a2.36,2.36,0,0,1-2.36,2.35H884.55a41.35,41.35,0,1,1,0-82.7Z"/>
        <g id="WaterStatus">
          <path class="cls-41" d="M884.55,510.89a36.77,36.77,0,1,0,36.78,36.77A36.77,36.77,0,0,0,884.55,510.89Zm1.32,31.68v3.77h-2.63v-3.77h-4.69l6-10.4,6,10.4Z"/>
        </g>
        <g>
          <g>
            <path class="cls-42" d="M918.69,547.66c0,1.19-.06,2.35-.17,3.5-.06.57-.13,1.13-.23,1.7,0,.28-.08.55-.14.85q-.14.82-.33,1.65c-.06.28-.14.56-.2.84-.14.54-.29,1.07-.47,1.6-.08.27-.17.54-.25.8s-.19.52-.28.79h0a34.25,34.25,0,0,1-20.32,20.33h0l-.79.28-.8.25c-.52.18-1.06.33-1.6.47l-.84.2c-.55.13-1.09.24-1.65.33-.29.06-.57.1-.85.14-.56.09-1.13.16-1.7.23-1.15.11-2.31.17-3.5.17s-2.34-.06-3.49-.17c-.57-.07-1.14-.14-1.7-.23-.28,0-.56-.08-.85-.14-.56-.09-1.11-.21-1.65-.33l-.84-.2c-.54-.14-1.08-.31-1.6-.47l-.8-.25-.8-.28h0a34.23,34.23,0,0,1-20.32-20.33h0c-.1-.27-.19-.52-.28-.79s-.17-.53-.26-.8c-.16-.53-.32-1.06-.46-1.6-.06-.28-.14-.56-.2-.84-.12-.55-.24-1.1-.34-1.65-.05-.3-.09-.57-.14-.85-.08-.56-.16-1.13-.22-1.7-.11-1.15-.17-2.31-.17-3.5s.06-2.34.17-3.49c.06-.57.14-1.14.22-1.7.05-.28.09-.56.14-.85.1-.56.22-1.11.34-1.66.06-.28.14-.56.2-.83.14-.54.3-1.08.46-1.61.09-.27.18-.53.26-.79s.18-.53.28-.8h0a34.19,34.19,0,0,1,20.32-20.32h0l.8-.28.8-.26c.52-.16,1.06-.32,1.6-.46l.84-.2c.54-.12,1.09-.24,1.65-.34l.85-.14c.57-.09,1.13-.16,1.7-.22,1.15-.11,2.31-.18,3.49-.18s2.35.07,3.5.18c.57.06,1.13.13,1.7.22l.85.14c.56.1,1.1.21,1.65.34l.84.2c.54.14,1.08.29,1.6.46l.8.26.79.28h0a34.21,34.21,0,0,1,20.32,20.32h0a8.46,8.46,0,0,1,.28.8c.08.26.17.52.25.79.18.53.33,1.07.47,1.61.06.27.14.55.2.83.13.55.24,1.1.33,1.66.06.29.1.57.14.85.1.57.17,1.13.23,1.7C918.63,545.32,918.69,546.48,918.69,547.66Z"/>
            <path class="cls-44" d="M918.52,544.17c-.06-.57-.14-1.14-.23-1.7,0-.28-.08-.56-.14-.85-.09-.56-.21-1.11-.33-1.66-.06-.28-.14-.56-.2-.83-.14-.54-.3-1.08-.47-1.61-.08-.27-.17-.53-.25-.79s-.19-.53-.28-.8h0A34.32,34.32,0,0,0,896.3,515.6h0l-.79-.28-.8-.26c-.52-.16-1.06-.32-1.6-.46l-.84-.2c-.55-.12-1.09-.24-1.65-.34l-.85-.14c-.56-.08-1.13-.16-1.7-.22-1.15-.11-2.31-.18-3.5-.18s-2.34.07-3.49.18c-.57.06-1.14.14-1.7.22l-.85.14c-.56.1-1.11.22-1.65.34l-.84.2c-.54.14-1.08.3-1.61.46l-.79.26-.8.28h0a34.29,34.29,0,0,0-20.32,20.32h0c-.1.27-.19.53-.28.8s-.17.52-.26.79c-.16.53-.32,1.07-.46,1.61-.06.27-.14.55-.2.83-.12.55-.24,1.1-.34,1.66-.05.29-.09.57-.14.85-.08.56-.16,1.13-.22,1.7-.11,1.15-.17,2.31-.17,3.49s.06,2.35.17,3.5c.06.57.14,1.14.22,1.7.05.28.09.55.14.85.1.55.22,1.1.34,1.65.06.28.14.56.2.84.14.54.3,1.07.46,1.6.09.27.18.54.26.8s.18.52.28.79h0a34.33,34.33,0,0,0,20.32,20.33h0c.27.09.53.19.8.27l.79.26c.53.16,1.07.33,1.61.47l.84.2c.54.12,1.09.24,1.65.33.29.06.57.1.85.14.56.09,1.13.16,1.7.23,1.15.11,2.31.17,3.49.17s2.35-.06,3.5-.17c.57-.07,1.14-.14,1.7-.23.28,0,.56-.08.85-.14.56-.09,1.1-.21,1.65-.33l.84-.2c.54-.14,1.08-.31,1.6-.47l.8-.26c.27-.08.53-.18.79-.27h0a34.36,34.36,0,0,0,20.32-20.33h0c.09-.27.19-.52.28-.79s.17-.53.25-.8c.17-.53.33-1.06.47-1.6.06-.28.14-.56.2-.84.12-.55.24-1.1.33-1.65.06-.3.1-.57.14-.85.09-.56.17-1.13.23-1.7.11-1.15.17-2.31.17-3.5S918.63,545.32,918.52,544.17Zm-34,34A30.48,30.48,0,1,1,915,547.66,30.52,30.52,0,0,1,884.55,578.14Z"/>
          </g>
          <g>
            <path class="cls-44" d="M900.35,532.16a1.43,1.43,0,0,0-1.43,1.44v12.2l-3.4,3.36a2.63,2.63,0,0,1-3.71,0,5.54,5.54,0,0,0-7.75,0l-.95,1c-2.09,1.95-4.12-.41-4.12-.41a5.52,5.52,0,0,0-7.75,0l-1,1V533.6a1.44,1.44,0,1,0-2.87,0v31.32a1.43,1.43,0,0,0,1.44,1.44h31.59a1.43,1.43,0,0,0,1.44-1.44V533.6a1.43,1.43,0,0,0-1.44-1.44Zm-1.43,31.33H870.19v-8.7l3.07-3a2.64,2.64,0,0,1,3.7,0s3.71,4.21,8.16.41l1-.95a2.63,2.63,0,0,1,3.71,0,5.52,5.52,0,0,0,7.75,0l1.37-1.37v13.66Z"/>
            <polygon class="cls-44" points="890.56 542.57 885.87 542.57 885.87 546.34 883.24 546.34 883.24 542.57 878.55 542.57 884.55 532.17 890.56 542.57"/>
          </g>
        </g>
        <path class="cls-43" d="M977.6,578.55V568.06h1.22v9.39h4.62v1.1Z"/>
        <text id="BigTank" class="cls-45" transform="translate(926.61 557.85)">350</text>
        <circle id="WaterEmpty" class="cls-46" cx="995.1" cy="506.31" r="6.61"/>
      </g>
      <g id="BlackWaterTank">
        <rect class="cls-40" x="293.93" y="43.27" width="118.22" height="44.08" rx="5.67"/>
        <text id="BlackWater" class="cls-47" transform="translate(343.47 78.84) scale(0.89 1)">50</text>
        <text class="cls-48" transform="translate(390.34 78.74)">%</text>
        <circle class="cls-46" cx="408.9" cy="45.89" r="6.61"/>
        <g>
          <path class="cls-44" d="M327.88,51.83a1.09,1.09,0,0,0-1.09,1.1v9.32l-2.6,2.57a2,2,0,0,1-2.83,0,4.24,4.24,0,0,0-5.93,0l-.73.72c-1.59,1.5-3.14-.31-3.14-.31a4.21,4.21,0,0,0-5.92,0l-.8.8V52.93a1.1,1.1,0,0,0-2.2,0V76.86a1.1,1.1,0,0,0,1.1,1.1h24.14a1.1,1.1,0,0,0,1.1-1.1V52.93a1.1,1.1,0,0,0-1.1-1.1Zm-1.09,23.94h-22V69.12l2.34-2.33a2,2,0,0,1,2.83,0,4.33,4.33,0,0,0,6.24.31l.73-.72a2,2,0,0,1,2.83,0,4.23,4.23,0,0,0,5.92,0l1-1V75.77Z"/>
          <polygon class="cls-44" points="320.4 54.72 315.81 62.66 311.23 54.72 314.81 54.72 314.81 51.84 316.81 51.84 316.81 54.72 320.4 54.72"/>
        </g>
      </g>
    </g>
    <g id="Electric">
      <g id="Voltmeter">
        <rect class="cls-40" x="112.97" y="43.27" width="155.26" height="44.08" rx="5.67"/>
        <text id="Voltage" class="cls-45" transform="translate(154.22 77.2)">24.34</text>
        <path class="cls-20" d="M128.78,52.62v.72H128a.83.83,0,0,0-.83.83v.73h-.83a1.65,1.65,0,0,0-1.66,1.65V77.22a1.66,1.66,0,0,0,1.66,1.66h9.94a1.66,1.66,0,0,0,1.66-1.66V56.55a1.65,1.65,0,0,0-1.66-1.65h-.82v-.73a.83.83,0,0,0-.83-.83h-.83v-.72a.83.83,0,0,0-.83-.83h-3.32A.83.83,0,0,0,128.78,52.62ZM128,56.55h8.28V77.22H126.3V56.55Z"/>
        <text class="cls-48" transform="translate(250.49 78.74)">v</text>
      </g>
    </g>
    <g id="Lights">
      <g>
        <rect class="cls-49" x="312.06" y="295.71" width="20.76" height="20.76"/>
        <path class="cls-2" d="M332.07,296.46v19.25H312.82V296.46h19.25m1.5-1.5H311.31v22.26h22.26V295Z"/>
      </g>
      <g>
        <rect class="cls-49" x="162.96" y="216.28" width="9.87" height="179.62"/>
        <path class="cls-2" d="M172.08,217V395.15h-8.36V217h8.36m1.5-1.5H162.21V396.65h11.37V215.53Z"/>
      </g>
      <g>
        <rect class="cls-49" x="501.48" y="295.71" width="20.76" height="20.76"/>
        <path class="cls-2" d="M521.48,296.46v19.25H502.23V296.46h19.25M523,295H500.72v22.26H523V295Z"/>
      </g>
      <g>
        <rect class="cls-49" x="731.93" y="298.99" width="20.76" height="20.76"/>
        <path class="cls-2" d="M751.93,299.75V319H732.68V299.75h19.25m1.51-1.51H731.17V320.5h22.27V298.24Z"/>
      </g>
      <g>
        <rect class="cls-49" x="741.73" y="423.58" width="20.76" height="20.76"/>
        <path class="cls-2" d="M761.74,424.33v19.26H742.49V424.33h19.25m1.5-1.5H741v22.26h22.26V422.83Z"/>
      </g>
      <g>
        <rect class="cls-49" x="947.87" y="295.71" width="20.76" height="20.76"/>
        <path class="cls-2" d="M967.87,296.46v19.25H948.62V296.46h19.25m1.51-1.5H947.11v22.26h22.27V295Z"/>
      </g>
      <g>
        <rect class="cls-49" x="545.78" y="283.09" width="623.95" height="3.61"/>
        <path class="cls-2" d="M1169,283.85v2.09H546.54v-2.09H1169m1.52-1.52H545v5.12h625.47v-5.12Z"/>
      </g>
      <g>
        <rect class="cls-49" x="833.38" y="157.87" width="20.76" height="20.76"/>
        <path class="cls-2" d="M853.39,158.63v19.25H834.13V158.63h19.26m1.5-1.51H832.63v22.26h22.26V157.12Z"/>
      </g>
      <g>
        <rect class="cls-49" x="1018.88" y="423.1" width="20.76" height="20.76"/>
        <path class="cls-2" d="M1038.89,423.85V443.1h-19.25V423.85h19.25m1.5-1.5h-22.26v22.26h22.26V422.35Z"/>
      </g>
      <g>
        <rect class="cls-49" x="1175.27" y="471" width="20.76" height="20.76"/>
        <path class="cls-2" d="M1195.28,471.75V491H1176V471.75h19.26m1.5-1.51h-22.26v22.27h22.26V470.24Z"/>
      </g>
      <g>
        <rect class="cls-49" x="465.2" y="204.86" width="20.76" height="20.76"/>
        <path class="cls-2" d="M485.2,205.61v19.25H466V205.61H485.2m1.51-1.5H464.45v22.26h22.26V204.11Z"/>
      </g>
      <g>
        <rect class="cls-49" x="632.96" y="151.65" width="10.28" height="110.18"/>
        <path class="cls-2" d="M642.49,152.4V261.08h-8.78V152.4h8.78m1.51-1.5H632.21V262.58H644V150.9Z"/>
      </g>
    </g>
    <g id="Vent">
      <g id="KitchenVent">
        <circle class="cls-40" cx="597.96" cy="547.66" r="41.35"/>
        <g id="KitchenVentStatus">
          <circle class="cls-41" cx="597.96" cy="547.66" r="36.77"/>
        </g>
        <g>
          <circle class="cls-42" cx="597.96" cy="547.66" r="34.14"/>
          <g>
            <path class="cls-44" d="M600.73,545.31c1.77-1.63,8.75-9.19,8.2-16.32-.47-6-7-7.87-10.88-7.87s-9.94,1.82-10.41,7.87c-.54,7,5.47,14,7.41,15.76a4,4,0,0,1,2.91-1A3.86,3.86,0,0,1,600.73,545.31Z"/>
            <path class="cls-44" d="M594.07,547.66a4.33,4.33,0,0,1,.7-1.91c-2.55-.78-11.33-1.45-17.1,2.51-5,3.43-4.23,8.57-2.29,11.93s6.54,8,12,5.41c5.82-2.79,8.92-10.6,9.76-13.9A3.93,3.93,0,0,1,594.07,547.66Z"/>
            <path class="cls-44" d="M618.48,547.69c-5.73-3.93-14.19-2.64-16.83-1.83a4,4,0,0,1,.42,1.8c0,2-1.67,3.23-3.58,3.59.81,3.21,3.9,11.41,9.8,14.23,5.47,2.62,10.32-1.83,12.26-5.19S623.48,551.12,618.48,547.69Z"/>
            <path class="cls-44" d="M598,513.52a34.14,34.14,0,1,0,34.14,34.14A34.18,34.18,0,0,0,598,513.52Zm0,64.62a30.48,30.48,0,1,1,30.48-30.48A30.51,30.51,0,0,1,598,578.14Z"/>
          </g>
        </g>
        <g id="KitchenVentArrow">
          <path class="cls-44" d="M628.78,488.47l.35.1.32.12h0c-.18.2-.6.15-.64-.15C628.79,488.53,628.78,488.49,628.78,488.47Z"/>
          <g>
            <path class="cls-44" d="M628.79,488.55a.57.57,0,0,1,.34,0l.3.13C629.25,488.9,628.83,488.85,628.79,488.55Z"/>
            <path class="cls-44" d="M622.68,483.61a.85.85,0,0,1,.07.36l-.38,0a.36.36,0,0,0,.22-.17Z"/>
          </g>
          <path class="cls-44" d="M664.58,447.22c-7.79,1-15.17,4.44-22,8.17a31.46,31.46,0,0,0-8.85,6.77,60.1,60.1,0,0,0-6.82,9.21,43.4,43.4,0,0,0-2.7,5.88c-.7,1.79-1.47,3.58-2.05,5.42a28,28,0,0,0-2.8-3.6.77.77,0,0,0-1.19.22c-1.22,2.56-1,5.76-1.1,8.52-.13,3.28-.2,6.55-.23,9.82a.8.8,0,0,0,1,.72c6.22-1.15,12.46-2.24,18.68-3.46a.76.76,0,0,0,.28-1.28,24.12,24.12,0,0,0-6.87-4.7h0a.08.08,0,0,0,0-.05l-.43-.18h0c-.18.2-.6.15-.64-.15,0,0,0-.06,0-.08a25,25,0,0,0-4.32-.54c-2-.18-3.91-.23-5.85-.22h0c0-1,.08-1.94.13-2.91a32.45,32.45,0,0,0,4.83.41c1.78.18,3.54.37,5.31.59a.76.76,0,0,0,.37,0,16.1,16.1,0,0,0-.47,2.72l.35.1.32.12a.47.47,0,0,0,.08-.14A21.23,21.23,0,0,1,634.7,479a32.61,32.61,0,0,1,10.58-7c8.23-3.63,17-5.25,25.6-7.58a.66.66,0,0,0,.51-.51.43.43,0,0,0,.11-.38,67.64,67.64,0,0,0-2.75-8.52c-.47-1.38-1-2.75-1.44-4.12a16.69,16.69,0,0,0-1.58-4A.63.63,0,0,0,664.58,447.22ZM618.4,496.68c0-.55,0-1.1,0-1.65,1.48.3,2.94.57,4.43.82Zm8.76-1.64h0a20.12,20.12,0,0,0-3.85-.45c-1.62-.15-3.24-.27-4.87-.37,0-.71,0-1.42.05-2.14,4,1,8,1.76,12.08,2.34Zm-2.82-5.8c1.68.26,3.57.93,5.27.84h.07a42.29,42.29,0,0,1,4.51,3.21h0l-.09,0H634c-5.17-.54-10.37-1.19-15.5-2.09,0-.83,0-1.66.07-2.48a.91.91,0,0,1,0-.17C620.5,488.68,622.43,488.92,624.34,489.24Zm13.08-28.61.65-.53a38.53,38.53,0,0,1,5-3.29.43.43,0,0,0,.17.12c3.48,1.25,7,2.57,10.37,4,3,1.23,5.9,2.61,8.84,3.94-1.19.3-2.37.62-3.55,1a.7.7,0,0,0-.27-.15c-3.83-1.19-7.69-2.3-11.55-3.36A42.39,42.39,0,0,0,637.42,460.63Zm-.88.8c6.72.82,13.21,3.18,19.69,5.11l-.15,0c-.94.27-1.88.56-2.82.85a.61.61,0,0,0-.48-.37c-3.51-.7-7.16-.95-10.72-1.31-2.92-.31-5.85-.53-8.79-.71A37.36,37.36,0,0,1,636.54,461.43Zm-4,4.48c3.22.45,6.41.9,9.64,1.32,2.75.35,5.53.82,8.31,1.12-1.8.62-3.59,1.3-5.33,2.07a.63.63,0,0,0-.29-.31l-.08-.05a.62.62,0,0,0-.42,0c-2.48-.19-4.94-.6-7.44-.67a48.77,48.77,0,0,0-7.15.18C630.7,468.3,631.63,467.1,632.58,465.91ZM618.77,484.1a14.4,14.4,0,0,1,.34-2.94c.7.9,1.33,1.82,2,2.74A10.7,10.7,0,0,0,618.77,484.1Zm10.84.48a.53.53,0,0,0-.41-.21c-1.77-.19-3.57-.32-5.36-.36-.36,0-.72,0-1.09,0l-.38,0a.36.36,0,0,0,.22-.17l.09-.17c.36-.66.69-1.32,1-2a.38.38,0,0,0,.34.17c1.23,0,2.46.13,3.69.25a7.8,7.8,0,0,0,2.84.17.75.75,0,0,0,.18-.08A15.54,15.54,0,0,0,629.61,484.58Zm3.56-5.88a20.62,20.62,0,0,0-2.26,3.12.55.55,0,0,0-.27-.59,6.4,6.4,0,0,0-3-.45,24.22,24.22,0,0,0-3.61.14c.45-1,.86-1.94,1.27-2.92a.38.38,0,0,0,.31.3c2.45.31,5,.29,7.43.41Zm.51-.56a.77.77,0,0,0-.71-.87,33.48,33.48,0,0,0-7.42.23l0,0c.41-1,.83-1.94,1.29-2.9,1.69.34,3.39.62,5.11.81.82.1,1.65.18,2.47.23a7.09,7.09,0,0,0,2,0A25.61,25.61,0,0,0,633.68,478.14Zm3.47-3.11a.44.44,0,0,0-.26-.41,4.42,4.42,0,0,0-2.11-.3l-2.53-.12c-1.69-.08-3.37-.21-5.06-.38a26,26,0,0,1,1.55-2.71c.13-.19.25-.38.38-.56,2.57.12,5.12.05,7.67.21,1.31.08,2.62.2,3.93.33.71.07,1.49.24,2.27.35A36.3,36.3,0,0,0,637.15,475Zm32.77-12.15a.59.59,0,0,0,.3,0,.89.89,0,0,0,.08.17c-1.91.38-3.83.8-5.73,1.27a.59.59,0,0,0-.38-.36,89,89,0,0,0-20.29-7.58c2-1.07,4-2,6-2.93a82.73,82.73,0,0,1,10.34,4.17c1.63.79,3.24,1.62,4.81,2.52.84.49,1.68,1,2.51,1.51A6.66,6.66,0,0,0,669.92,462.88Zm-2.45-7.2c.64,1.7,1.22,3.48,1.9,5.2l-.69-.41c-.83-.53-1.67-1-2.51-1.52q-2.64-1.5-5.39-2.75a59.5,59.5,0,0,0-9.55-3.36c1.58-.69,3.16-1.32,4.78-1.87,3.73,1.52,7.55,2.81,11.3,4.27C667.36,455.38,667.42,455.53,667.47,455.68Zm-2.6-7h0c.28.9.7,1.79,1,2.64.22.62.45,1.22.67,1.82a52.36,52.36,0,0,0-8.93-2.74A53.87,53.87,0,0,1,664.87,448.7Z"/>
          <path class="cls-44" d="M628.78,488.47l.35.1.32.12h0c-.18.2-.6.15-.64-.15C628.79,488.53,628.78,488.49,628.78,488.47Z"/>
        </g>
      </g>
      <g id="BathVent">
        <circle class="cls-40" cx="488.77" cy="65.31" r="41.35"/>
        <g id="BathVentStatus">
          <circle class="cls-41" cx="488.77" cy="65.31" r="36.77"/>
        </g>
        <g>
          <circle class="cls-42" cx="488.77" cy="65.31" r="34.14"/>
          <g>
            <path class="cls-44" d="M491.55,63c1.76-1.63,8.75-9.19,8.19-16.33-.47-6.05-7-7.87-10.88-7.87s-9.93,1.82-10.4,7.87c-.55,7,5.46,13.95,7.41,15.76a3.93,3.93,0,0,1,2.9-1A3.83,3.83,0,0,1,491.55,63Z"/>
            <path class="cls-44" d="M484.89,65.31a4.42,4.42,0,0,1,.7-1.92c-2.56-.78-11.34-1.44-17.11,2.52-5,3.43-4.23,8.56-2.29,11.92s6.54,8,12,5.41c5.83-2.78,8.92-10.59,9.77-13.9A3.91,3.91,0,0,1,484.89,65.31Z"/>
            <path class="cls-44" d="M509.29,65.34c-5.73-3.93-14.18-2.64-16.82-1.84a4.22,4.22,0,0,1,.42,1.81c0,2-1.68,3.23-3.59,3.58.81,3.22,3.9,11.42,9.8,14.24,5.48,2.62,10.32-1.84,12.26-5.2S514.29,68.77,509.29,65.34Z"/>
            <path class="cls-44" d="M488.77,31.16a34.15,34.15,0,1,0,34.14,34.15A34.19,34.19,0,0,0,488.77,31.16Zm0,64.63a30.49,30.49,0,1,1,30.49-30.48A30.51,30.51,0,0,1,488.77,95.79Z"/>
          </g>
        </g>
        <g id="BathVentArrow">
          <path class="cls-44" d="M521.43,114.84l-.32.17-.3.14s0,0,0,0c0-.28.31-.54.55-.35Z"/>
          <g>
            <path class="cls-44" d="M521.36,114.79a.55.55,0,0,1-.25.22l-.3.13C520.8,114.86,521.12,114.6,521.36,114.79Z"/>
            <path class="cls-44" d="M529.17,113.94a1,1,0,0,1-.3-.21,3.47,3.47,0,0,1,.29-.25.33.33,0,0,0,0,.28A1,1,0,0,1,529.17,113.94Z"/>
          </g>
          <path class="cls-44" d="M525.42,169.31c4.79-6.23,7.56-13.89,9.73-21.37a31.13,31.13,0,0,0,1.45-11.05,59.33,59.33,0,0,0-1.73-11.33,42.91,42.91,0,0,0-2.26-6.06c-.78-1.76-1.5-3.57-2.39-5.28a27.64,27.64,0,0,0,4.52.56.78.78,0,0,0,.69-1c-.95-2.67-3.39-4.75-5.27-6.79q-3.35-3.6-6.8-7.08a.78.78,0,0,0-1.22.21c-3.58,5.22-7.2,10.41-10.73,15.68-.33.49.19,1.13.71,1.11a24.1,24.1,0,0,0,8.18-1.56h.07l.44-.18s0,0,0,0c0-.28.31-.54.55-.35l.07,0a25.62,25.62,0,0,0,3.43-2.69,57.72,57.72,0,0,0,4.28-4h0l2,2.15a32.34,32.34,0,0,0-3.7,3.14c-1.38,1.13-2.76,2.24-4.16,3.34a.87.87,0,0,0-.23.29,15.55,15.55,0,0,0-1.6-2.24l-.32.17-.3.14a.24.24,0,0,0,0,.16,21.36,21.36,0,0,1,3.09,10.37,32.47,32.47,0,0,1-2.49,12.45c-3.23,8.4-8.24,15.74-12.68,23.5a.65.65,0,0,0,0,.72.44.44,0,0,0,.19.34,67.4,67.4,0,0,0,8,4.07c1.31.63,2.61,1.26,3.93,1.88a16.78,16.78,0,0,0,4,1.7A.63.63,0,0,0,525.42,169.31Zm-2.49-67.63c.39.4.78.79,1.16,1.19-1.26.83-2.49,1.68-3.71,2.56Zm-5,7.37h0a21.37,21.37,0,0,0,3-2.41c1.25-1,2.48-2.11,3.69-3.2.5.51,1,1,1.49,1.55-3.51,2.16-6.9,4.43-10.17,6.91Zm6.11,2.1c-1.37,1-3.18,1.87-4.31,3.14a.15.15,0,0,0-.05.06,40.15,40.15,0,0,1-5.46.92h0a.24.24,0,0,0,.08-.06l.06,0c4-3.28,8.15-6.51,12.4-9.51.58.59,1.16,1.19,1.72,1.8l.11.12C527.12,108.82,525.59,110,524,111.15Zm11.05,29.45c0,.27-.05.55-.08.83a38.53,38.53,0,0,1-1.19,5.86.52.52,0,0,0-.21,0q-5,2.38-10.12,4.56c-3,1.26-6,2.34-9,3.49.63-1.06,1.23-2.12,1.83-3.19a.69.69,0,0,0,.29-.09c3.55-1.88,7.06-3.83,10.54-5.82A42.72,42.72,0,0,0,535.07,140.6Zm.06-1.19c-5.33,4.18-11.57,7.11-17.51,10.35l.07-.13c.46-.87.93-1.73,1.38-2.61a.63.63,0,0,0,.61-.08c3-2,5.72-4.41,8.49-6.67,2.27-1.86,4.49-3.78,6.69-5.73A37.66,37.66,0,0,1,535.13,139.41Zm-.39-6c-2.58,2-5.16,3.91-7.73,5.9-2.19,1.7-4.49,3.35-6.65,5.11.82-1.72,1.6-3.47,2.29-5.24a.61.61,0,0,0,.42,0l.09,0a.64.64,0,0,0,.33-.27c1.88-1.62,3.91-3.08,5.72-4.8a48.25,48.25,0,0,0,4.91-5.2C534.37,130.42,534.57,131.93,534.74,133.44Zm-3.15-22.62a15.74,15.74,0,0,1,1.85,2.31c-1.14-.13-2.24-.33-3.38-.5A10.73,10.73,0,0,0,531.59,110.82Zm-8,7.35A.58.58,0,0,0,524,118c1.39-1.13,2.74-2.31,4-3.55l.8-.75a3.47,3.47,0,0,1,.29-.25.33.33,0,0,0,0,.28,1,1,0,0,1,0,.18c.22.72.45,1.42.71,2.12a.4.4,0,0,0-.37.12c-.9.84-1.82,1.65-2.77,2.44a7.74,7.74,0,0,0-2.13,1.89.82.82,0,0,0-.06.19A16.41,16.41,0,0,0,523.6,118.17Zm1.66,6.67a20.89,20.89,0,0,0-.62-3.81.55.55,0,0,0,.61.23,6.4,6.4,0,0,0,2.45-1.82,24.58,24.58,0,0,0,2.44-2.66c.38,1,.77,2,1.18,3a.36.36,0,0,0-.43,0c-1.95,1.51-3.71,3.31-5.53,5A.48.48,0,0,0,525.26,124.84Zm0,.76a.77.77,0,0,0,1.12.1,33.29,33.29,0,0,0,5.07-5.41l0-.06c.4,1,.78,2,1.14,3-1.44,1-2.83,2-4.17,3-.66.52-1.29,1.05-1.91,1.59a7.53,7.53,0,0,0-1.4,1.36A24,24,0,0,0,525.29,125.6Zm-.24,4.65a.45.45,0,0,0,.48.1,4.4,4.4,0,0,0,1.7-1.28c.61-.57,1.24-1.14,1.87-1.71q1.88-1.71,3.84-3.31a27.66,27.66,0,0,1,.82,3c0,.23.1.45.13.67-1.89,1.73-3.64,3.59-5.55,5.29-1,.87-2,1.71-3,2.55-.55.45-1.23.89-1.85,1.36A36.08,36.08,0,0,0,525.05,130.25Zm-14.49,31.8a.72.72,0,0,0-.2.23l-.17-.07c1.08-1.61,2.13-3.27,3.14-5a.56.56,0,0,0,.52,0,89.76,89.76,0,0,0,19.69-9c-.64,2.16-1.41,4.29-2.19,6.35A84.94,84.94,0,0,1,521.1,159c-1.71.6-3.43,1.15-5.17,1.63-.94.25-1.89.5-2.84.71A6.72,6.72,0,0,0,510.56,162.05Zm6.83,3.34c-1.66-.75-3.33-1.59-5-2.32l.78-.2c1-.22,1.9-.46,2.85-.71,1.94-.54,3.87-1.16,5.75-1.88a60.62,60.62,0,0,0,9.11-4.39c-.62,1.6-1.29,3.16-2,4.7-3.71,1.57-7.32,3.37-11,5Zm6.78,3.08h0c-.84-.43-1.76-.76-2.59-1.14l-1.76-.82a50.46,50.46,0,0,0,8.24-4.39A53.23,53.23,0,0,1,524.17,168.47Z"/>
          <path class="cls-44" d="M521.43,114.84l-.32.17-.3.14s0,0,0,0c0-.28.31-.54.55-.35Z"/>
        </g>
      </g>
      <g id="MainVent">
        <g>
          <path class="cls-50" d="M1139.91,24h90.74a2.36,2.36,0,0,1,2.36,2.35v78a2.36,2.36,0,0,1-2.36,2.36h-90.74a41.35,41.35,0,0,1,0-82.7Z"/>
          <path class="cls-51" d="M1230.65,106.85h-90.74a41.54,41.54,0,0,1,0-83.08h90.74a2.54,2.54,0,0,1,2.54,2.54v78A2.55,2.55,0,0,1,1230.65,106.85Zm-90.74-82.71a41.17,41.17,0,0,0,0,82.33h90.74a2.17,2.17,0,0,0,2.17-2.17v-78a2.17,2.17,0,0,0-2.17-2.17Z"/>
        </g>
        <circle id="MainVentStaus" class="cls-41" cx="1140.01" cy="65.31" r="36.77"/>
        <g>
          <circle class="cls-42" cx="1140.01" cy="65.31" r="34.14"/>
          <g>
            <path class="cls-44" d="M1142.78,63c1.77-1.63,8.75-9.19,8.2-16.33-.47-6.05-7-7.87-10.88-7.87s-9.94,1.82-10.41,7.87c-.54,7,5.46,13.95,7.41,15.76a3.94,3.94,0,0,1,2.91-1A3.82,3.82,0,0,1,1142.78,63Z"/>
            <path class="cls-44" d="M1136.12,65.31a4.42,4.42,0,0,1,.7-1.92c-2.55-.78-11.33-1.44-17.11,2.52-5,3.43-4.23,8.56-2.29,11.92s6.55,8,12,5.41c5.83-2.78,8.92-10.59,9.77-13.9A3.92,3.92,0,0,1,1136.12,65.31Z"/>
            <path class="cls-44" d="M1160.52,65.34c-5.72-3.93-14.18-2.64-16.82-1.84a4.08,4.08,0,0,1,.42,1.81c0,2-1.67,3.23-3.59,3.58.82,3.22,3.91,11.42,9.81,14.24,5.47,2.62,10.31-1.84,12.25-5.2S1165.53,68.77,1160.52,65.34Z"/>
            <path class="cls-44" d="M1140,31.16a34.15,34.15,0,1,0,34.14,34.15A34.19,34.19,0,0,0,1140,31.16Zm0,64.63a30.49,30.49,0,1,1,30.48-30.48A30.52,30.52,0,0,1,1140,95.79Z"/>
          </g>
        </g>
        <g id="MainVentDown">
          <rect class="cls-51" x="1196.99" y="71.11" width="30.97" height="30.97" rx="5.67"/>
          <g>
            <path class="cls-44" d="M1221.86,103h-18.78a7,7,0,0,1-7-7V77.2a7,7,0,0,1,7-7h18.78a7,7,0,0,1,7,7V96A7.05,7.05,0,0,1,1221.86,103Zm-18.78-31a5.16,5.16,0,0,0-5.15,5.15V96a5.16,5.16,0,0,0,5.15,5.16h18.78A5.16,5.16,0,0,0,1227,96V77.2a5.16,5.16,0,0,0-5.16-5.15Z"/>
            <path class="cls-44" d="M1221.83,87.53h-18.37a.94.94,0,0,1,0-1.88h18.37a.94.94,0,1,1,0,1.88Z"/>
          </g>
        </g>
        <g id="MainVentUp">
          <rect class="cls-51" x="1196.99" y="28.53" width="30.97" height="30.97" rx="5.67"/>
          <g>
            <path class="cls-44" d="M1221.86,60.45h-18.78a7,7,0,0,1-7-7V34.63a7,7,0,0,1,7-7h18.78a7.05,7.05,0,0,1,7,7V53.41A7.05,7.05,0,0,1,1221.86,60.45Zm-18.78-31a5.16,5.16,0,0,0-5.15,5.16V53.41a5.16,5.16,0,0,0,5.15,5.15h18.78a5.16,5.16,0,0,0,5.16-5.15V34.63a5.17,5.17,0,0,0-5.16-5.16Z"/>
            <path class="cls-44" d="M1221.83,45h-18.37a.94.94,0,0,1,0-1.88h18.37a.94.94,0,1,1,0,1.88Z"/>
            <path class="cls-44" d="M1212.65,54.14a1,1,0,0,1-1-.94V34.84a.95.95,0,0,1,1.89,0V53.2A1,1,0,0,1,1212.65,54.14Z"/>
          </g>
        </g>
        <path id="MainVentArrow" class="cls-44" d="M1111.36,195.57c0,.05,0,.1.05.14.24.78.46,1.57.68,2.35,0,0,0,0,0,0,7.53,27.86.23,56.76-18.22,74-5.09,4.75-11.29,9.35-17.95,11.36.76,1.93,1.52,3.83,2.46,5.69a1,1,0,0,1-.61,1.41c-5,.78-10.31.44-15.44.43s-10.51,0-15.76,0a1.17,1.17,0,0,1-.89-1.9c7-8.7,14.21-17.23,21.8-25.34.42-.46,1.18-.14,1.47.44,1.31,2.6,2.55,5.24,3.66,7.92,6.42-3.53,12.65-6.83,18.06-12.1a62.72,62.72,0,0,0,12.88-18,72.8,72.8,0,0,0,6.36-21.46,99.8,99.8,0,0,0,.79-11.91c.06-4.16.7-8.6-.08-12.81h0A.38.38,0,0,1,1111.36,195.57Zm.94,12.28a102.89,102.89,0,0,1-.67,12.94,75,75,0,0,1-6.14,21.69A63.84,63.84,0,0,1,1092,261.73c-5.57,5.42-12.49,10.59-20,12.54-.44.11-.75-.24-.83-.66a.64.64,0,0,1-.08-.14c-1-2.45-2-4.84-3.16-7.2-6.75,7.24-13.31,14.72-19.46,22.6,9.2.06,18.66.69,27.7-.25a24.85,24.85,0,0,1-1.77-6.07.56.56,0,0,1,.3-.61.51.51,0,0,1,.16-.13c3.72-2,7.53-3.66,11-6.08a60.16,60.16,0,0,0,9.25-7.88,64.14,64.14,0,0,0,13.48-21.33c4.95-12.88,6.1-27.66,3.75-42.25C1112.36,205.49,1112.3,206.69,1112.3,207.85Z"/>
      </g>
    </g>
    <g id="Heat">
      <g id="BedroomFloorHeater">
        <circle class="cls-40" cx="59.73" cy="306.09" r="41.35"/>
        <circle id="BedroomFloorHeaterStatus" class="cls-41" cx="59.73" cy="306.09" r="36.77"/>
        <g>
          <circle class="cls-42" cx="59.73" cy="306.09" r="34.14"/>
          <path class="cls-20" d="M59.73,272a34.14,34.14,0,1,0,34.15,34.14A34.18,34.18,0,0,0,59.73,272Zm0,64.62a30.49,30.49,0,1,1,30.49-30.48A30.52,30.52,0,0,1,59.73,336.57Z"/>
          <path class="cls-20" d="M76.14,325.29A1.14,1.14,0,0,1,75,324.16V288.9c0-.68-.37-1.2-.69-1.2H70.18c-.32,0-.7.52-.7,1.2v32.92a3.25,3.25,0,0,1-3,3.47H62.39a3.25,3.25,0,0,1-3-3.47V288.9c0-.68-.38-1.2-.7-1.2H54.6c-.32,0-.69.52-.69,1.2v32.92a3.25,3.25,0,0,1-3,3.47H46.81a3.25,3.25,0,0,1-3-3.47V286.57a1.13,1.13,0,1,1,2.26,0v35.25c0,.68.37,1.21.69,1.21H51c.32,0,.7-.53.7-1.21V288.9a3.24,3.24,0,0,1,3-3.46h4.14a3.24,3.24,0,0,1,2.95,3.46v32.92c0,.68.38,1.21.7,1.21h4.14c.32,0,.69-.53.69-1.21V288.9a3.24,3.24,0,0,1,3-3.46h4.14a3.24,3.24,0,0,1,3,3.46v35.26A1.14,1.14,0,0,1,76.14,325.29Z"/>
        </g>
        <path id="BedroomFloorStair" class="cls-20" d="M384.05,348.48H361.29a.75.75,0,1,1,0-1.5h22.76c.5,0,.75-.25.75-.31v-2.4c0-.06-.25-.31-.75-.31H362.8a2.06,2.06,0,0,1-2.26-1.81v-2.41a2.06,2.06,0,0,1,2.26-1.81h21.25c.5,0,.75-.25.75-.31v-2.4c0-.06-.25-.31-.75-.31H362.8a2.05,2.05,0,0,1-2.26-1.81v-2.4a2.05,2.05,0,0,1,2.26-1.81h21.25c.5,0,.75-.25.75-.31v-2.4c0-.06-.25-.31-.75-.31H362.8a2.06,2.06,0,0,1-2.26-1.81v-2.41a2.06,2.06,0,0,1,2.26-1.81h21.25c.5,0,.75-.25.75-.31v-2.4c0-.06-.25-.31-.75-.31H362.8a2.05,2.05,0,0,1-2.26-1.81v-2.4a2.06,2.06,0,0,1,2.26-1.82h21.25c.5,0,.75-.24.75-.3v-2.41c0-.05-.25-.3-.75-.3H362.8a2.06,2.06,0,0,1-2.26-1.82v-2.4a2.06,2.06,0,0,1,2.26-1.81h21.25c.5,0,.75-.25.75-.31V299c0-.06-.25-.31-.75-.31H362.8a2.05,2.05,0,0,1-2.26-1.81v-2.4a2.06,2.06,0,0,1,2.26-1.82h22.76a.76.76,0,0,1,0,1.51H362.8c-.5,0-.75.25-.75.31v2.4c0,.06.25.31.75.31h21.25a2,2,0,0,1,2.26,1.81v2.4a2.05,2.05,0,0,1-2.26,1.82H362.8c-.5,0-.75.24-.75.3V306c0,.06.25.31.75.31h21.25a2.05,2.05,0,0,1,2.26,1.81v2.41a2.05,2.05,0,0,1-2.26,1.81H362.8c-.5,0-.75.25-.75.31V315c0,.06.25.31.75.31h21.25a2,2,0,0,1,2.26,1.81v2.4a2.05,2.05,0,0,1-2.26,1.82H362.8c-.5,0-.75.24-.75.3v2.41c0,.05.25.3.75.3h21.25a2.05,2.05,0,0,1,2.26,1.82v2.4a2.05,2.05,0,0,1-2.26,1.81H362.8c-.5,0-.75.25-.75.31v2.4c0,.06.25.31.75.31h21.25a2,2,0,0,1,2.26,1.81v2.4a2.05,2.05,0,0,1-2.26,1.82H362.8c-.5,0-.75.25-.75.3v2.41c0,.06.25.3.75.3h21.25a2.05,2.05,0,0,1,2.26,1.82v2.4A2,2,0,0,1,384.05,348.48Z"/>
        <path id="BedroomFloorMain" class="cls-20" d="M148.83,402.44H136a.76.76,0,0,1,0-1.51H148.7a2.24,2.24,0,0,0,.23-1.11v-4.23a2.26,2.26,0,0,0-.23-1.12H136.82c-.94,0-1.6-1.08-1.6-2.62v-4.23c0-1.54.66-2.62,1.6-2.62H148.7a2.24,2.24,0,0,0,.23-1.11v-4.24a2.24,2.24,0,0,0-.23-1.11H136.82c-.94,0-1.6-1.08-1.6-2.62v-4.23c0-1.55.66-2.62,1.6-2.62H148.7a2.32,2.32,0,0,0,.23-1.12v-4.23a2.24,2.24,0,0,0-.23-1.11H136.82c-.94,0-1.6-1.08-1.6-2.62v-4.24c0-1.54.66-2.62,1.6-2.62H148.7a2.24,2.24,0,0,0,.23-1.11v-4.23a2.32,2.32,0,0,0-.23-1.12H136.82c-.94,0-1.6-1.07-1.6-2.62v-4.23c0-1.54.66-2.62,1.6-2.62H148.7a2.24,2.24,0,0,0,.23-1.11v-4.23a2.26,2.26,0,0,0-.23-1.12H136.82c-.94,0-1.6-1.08-1.6-2.62v-4.23c0-1.54.66-2.62,1.6-2.62H148.7a2.26,2.26,0,0,0,.23-1.12v-4.23a2.24,2.24,0,0,0-.23-1.11H136.82c-.94,0-1.6-1.08-1.6-2.62V308c0-1.55.66-2.62,1.6-2.62H148.7a2.32,2.32,0,0,0,.23-1.12V300a2.24,2.24,0,0,0-.23-1.11H136.82c-.94,0-1.6-1.08-1.6-2.62V292c0-1.54.66-2.62,1.6-2.62H148.7a2.24,2.24,0,0,0,.23-1.11v-4.23a2.26,2.26,0,0,0-.23-1.12H136.82c-.94,0-1.6-1.08-1.6-2.62v-4.23c0-1.54.66-2.62,1.6-2.62H148.7a2.24,2.24,0,0,0,.23-1.11v-4.24a2.24,2.24,0,0,0-.23-1.11H136.82c-.94,0-1.6-1.08-1.6-2.62v-4.23c0-1.55.66-2.62,1.6-2.62H148.7a2.29,2.29,0,0,0,.23-1.12v-4.23a2.24,2.24,0,0,0-.23-1.11H136.82c-.94,0-1.6-1.08-1.6-2.62v-4.24c0-1.54.66-2.62,1.6-2.62H148.7a2.24,2.24,0,0,0,.23-1.11v-4.23a2.32,2.32,0,0,0-.23-1.12H136.82c-.94,0-1.6-1.07-1.6-2.62v-4.23c0-1.54.66-2.62,1.6-2.62H148.7a2.24,2.24,0,0,0,.23-1.11v-4.23a2.26,2.26,0,0,0-.23-1.12H136.82c-.94,0-1.6-1.08-1.6-2.62v-4.23c0-1.54.66-2.62,1.6-2.62h12.87a.75.75,0,0,1,0,1.5H137a2.29,2.29,0,0,0-.24,1.12v4.23a2.29,2.29,0,0,0,.24,1.12h11.87c.95,0,1.61,1.07,1.61,2.62v4.23c0,1.54-.66,2.62-1.61,2.62H137a2.21,2.21,0,0,0-.24,1.11v4.23a2.22,2.22,0,0,0,.24,1.12h11.87c.95,0,1.61,1.08,1.61,2.62v4.23c0,1.54-.66,2.62-1.61,2.62H137a2.21,2.21,0,0,0-.24,1.11v4.24a2.21,2.21,0,0,0,.24,1.11h11.87c.95,0,1.61,1.08,1.61,2.62v4.23c0,1.55-.66,2.62-1.61,2.62H137a2.29,2.29,0,0,0-.24,1.12v4.23a2.21,2.21,0,0,0,.24,1.11h11.87c.95,0,1.61,1.08,1.61,2.62v4.24c0,1.54-.66,2.62-1.61,2.62H137a2.21,2.21,0,0,0-.24,1.11v4.23a2.29,2.29,0,0,0,.24,1.12h11.87c.95,0,1.61,1.07,1.61,2.62v4.23c0,1.54-.66,2.62-1.61,2.62H137a2.21,2.21,0,0,0-.24,1.11v4.24a2.21,2.21,0,0,0,.24,1.11h11.87c.95,0,1.61,1.08,1.61,2.62v4.23c0,1.54-.66,2.62-1.61,2.62H137a2.22,2.22,0,0,0-.24,1.12v4.23a2.21,2.21,0,0,0,.24,1.11h11.87c.95,0,1.61,1.08,1.61,2.62v4.23c0,1.55-.66,2.62-1.61,2.62H137a2.29,2.29,0,0,0-.24,1.12v4.23a2.29,2.29,0,0,0,.24,1.12h11.87c.95,0,1.61,1.07,1.61,2.62v4.23c0,1.54-.66,2.62-1.61,2.62H137a2.21,2.21,0,0,0-.24,1.11v4.23a2.22,2.22,0,0,0,.24,1.12h11.87c.95,0,1.61,1.08,1.61,2.62V352c0,1.54-.66,2.62-1.61,2.62H137a2.21,2.21,0,0,0-.24,1.11V360a2.21,2.21,0,0,0,.24,1.11h11.87c.95,0,1.61,1.08,1.61,2.62V368c0,1.55-.66,2.62-1.61,2.62H137a2.29,2.29,0,0,0-.24,1.12v4.23A2.21,2.21,0,0,0,137,377h11.87c.95,0,1.61,1.08,1.61,2.62v4.24c0,1.54-.66,2.62-1.61,2.62H137a2.21,2.21,0,0,0-.24,1.11v4.23A2.29,2.29,0,0,0,137,393h11.87c.95,0,1.61,1.07,1.61,2.62v4.23C150.44,401.36,149.78,402.44,148.83,402.44Z"/>
      </g>
      <g id="BathroomFloorHeater">
        <circle class="cls-40" cx="597.96" cy="65.31" r="41.35"/>
        <circle id="BathroomFloorHeaterStatus" class="cls-41" cx="597.96" cy="65.31" r="36.77"/>
        <g>
          <circle class="cls-42" cx="597.96" cy="65.31" r="34.14"/>
          <path class="cls-20" d="M598,31.16A34.15,34.15,0,1,0,632.1,65.31,34.18,34.18,0,0,0,598,31.16Zm0,64.63a30.49,30.49,0,1,1,30.48-30.48A30.51,30.51,0,0,1,598,95.79Z"/>
          <path class="cls-20" d="M614.37,84.5a1.12,1.12,0,0,1-1.13-1.13V48.12c0-.68-.38-1.21-.7-1.21H608.4c-.32,0-.69.53-.69,1.21V81a3.24,3.24,0,0,1-3,3.46h-4.14a3.24,3.24,0,0,1-3-3.46V48.12c0-.68-.37-1.21-.7-1.21h-4.13c-.33,0-.7.53-.7,1.21V81a3.24,3.24,0,0,1-3,3.46H585A3.24,3.24,0,0,1,582.09,81V45.78a1.13,1.13,0,0,1,2.25,0V81c0,.68.38,1.21.7,1.21h4.14c.32,0,.69-.53.69-1.21V48.12a3.24,3.24,0,0,1,3-3.46H597a3.24,3.24,0,0,1,3,3.46V81c0,.68.37,1.21.69,1.21h4.14c.32,0,.7-.53.7-1.21V48.12a3.24,3.24,0,0,1,2.95-3.46h4.14a3.24,3.24,0,0,1,3,3.46V83.37A1.12,1.12,0,0,1,614.37,84.5Z"/>
        </g>
        <path id="BathroomFloor" class="cls-20" d="M512,270.4H480.43a.76.76,0,1,1,0-1.51H512c.81,0,1.34-.39,1.34-.65v-3.18c0-.26-.53-.65-1.34-.65H482.52c-1.6,0-2.85-1-2.85-2.16v-3.18c0-1.21,1.25-2.16,2.85-2.16H512c.81,0,1.34-.39,1.34-.65v-3.19c0-.26-.53-.65-1.34-.65H482.52c-1.6,0-2.85-.94-2.85-2.15v-3.19c0-1.21,1.25-2.15,2.85-2.15H512c.81,0,1.34-.39,1.34-.65v-3.19c0-.26-.53-.65-1.34-.65H482.52c-1.6,0-2.85-.95-2.85-2.16V235.1c0-1.21,1.25-2.15,2.85-2.15H512c.81,0,1.34-.4,1.34-.66v-3.18c0-.26-.53-.65-1.34-.65H482.52c-1.6,0-2.85-1-2.85-2.16v-3.18c0-1.21,1.25-2.16,2.85-2.16H512c.81,0,1.34-.39,1.34-.65v-3.18c0-.26-.53-.65-1.34-.65H482.52c-1.6,0-2.85-.95-2.85-2.16v-3.18c0-1.21,1.25-2.16,2.85-2.16H512c.81,0,1.34-.39,1.34-.65v-3.18c0-.26-.53-.65-1.34-.65H482.52c-1.6,0-2.85-.95-2.85-2.16v-3.18c0-1.21,1.25-2.16,2.85-2.16h31.53a.76.76,0,1,1,0,1.51H482.52c-.81,0-1.34.39-1.34.65v3.18c0,.26.53.65,1.34.65H512c1.6,0,2.85.95,2.85,2.16v3.18c0,1.21-1.25,2.16-2.85,2.16H482.52c-.81,0-1.34.39-1.34.65v3.18c0,.26.53.65,1.34.65H512c1.6,0,2.85.95,2.85,2.16v3.18c0,1.21-1.25,2.16-2.85,2.16H482.52c-.81,0-1.34.39-1.34.65v3.18c0,.26.53.66,1.34.66H512c1.6,0,2.85.94,2.85,2.15v3.18c0,1.21-1.25,2.16-2.85,2.16H482.52c-.81,0-1.34.39-1.34.65v3.18c0,.26.53.66,1.34.66H512c1.6,0,2.85.94,2.85,2.15v3.19c0,1.21-1.25,2.15-2.85,2.15H482.52c-.81,0-1.34.39-1.34.65v3.19c0,.26.53.65,1.34.65H512c1.6,0,2.85.94,2.85,2.15v3.19c0,1.21-1.25,2.15-2.85,2.15H482.52c-.81,0-1.34.4-1.34.66v3.18c0,.26.53.65,1.34.65H512c1.6,0,2.85,1,2.85,2.16v3.18C514.81,269.45,513.56,270.4,512,270.4Z"/>
      </g>
      <g id="BedroomHeater">
        <g>
          <path class="cls-50" d="M355.59,589H264.85a2.36,2.36,0,0,1-2.35-2.35v-78a2.36,2.36,0,0,1,2.35-2.35h90.74a41.35,41.35,0,1,1,0,82.7Z"/>
          <path class="cls-51" d="M355.59,589.2H264.85a2.54,2.54,0,0,1-2.54-2.54v-78a2.54,2.54,0,0,1,2.54-2.54h90.74a41.54,41.54,0,0,1,0,83.08Zm-90.74-82.7a2.16,2.16,0,0,0-2.16,2.16v78a2.16,2.16,0,0,0,2.16,2.16h90.74a41.16,41.16,0,0,0,0-82.32Z"/>
        </g>
        <circle id="BedroomHeaterStatus" class="cls-41" cx="355.02" cy="547.66" r="36.77"/>
        <g>
          <circle class="cls-42" cx="355.02" cy="547.66" r="34.14"/>
          <g>
            <path class="cls-20" d="M357.79,545.31c1.77-1.63,8.75-9.19,8.2-16.32-.47-6-7-7.87-10.88-7.87s-9.94,1.82-10.41,7.87c-.54,7,5.47,14,7.41,15.76a4,4,0,0,1,2.91-1A3.86,3.86,0,0,1,357.79,545.31Z"/>
            <path class="cls-20" d="M351.13,547.66a4.33,4.33,0,0,1,.7-1.91c-2.55-.78-11.33-1.45-17.1,2.51-5,3.43-4.23,8.57-2.29,11.93s6.54,8,12,5.41c5.82-2.79,8.92-10.6,9.76-13.9A3.93,3.93,0,0,1,351.13,547.66Z"/>
            <path class="cls-20" d="M375.54,547.69c-5.73-3.93-14.19-2.64-16.83-1.83a4,4,0,0,1,.42,1.8c0,2-1.67,3.23-3.58,3.59.81,3.21,3.9,11.41,9.8,14.23,5.47,2.62,10.32-1.83,12.26-5.19S380.54,551.12,375.54,547.69Z"/>
            <path class="cls-20" d="M355,513.52a34.14,34.14,0,1,0,34.14,34.14A34.18,34.18,0,0,0,355,513.52Zm0,64.62a30.48,30.48,0,1,1,30.48-30.48A30.52,30.52,0,0,1,355,578.14Z"/>
          </g>
        </g>
        <g id="BedroomHeaterDown">
          <rect class="cls-51" x="267.15" y="553.46" width="30.97" height="30.97" rx="5.67"/>
          <g>
            <path class="cls-52" d="M292,585.37H273.25a7,7,0,0,1-7-7V559.56a7.05,7.05,0,0,1,7-7H292a7,7,0,0,1,7,7v18.78A7,7,0,0,1,292,585.37Zm-18.78-31a5.17,5.17,0,0,0-5.16,5.16v18.78a5.16,5.16,0,0,0,5.16,5.15H292a5.16,5.16,0,0,0,5.15-5.15V559.56A5.16,5.16,0,0,0,292,554.4Z"/>
            <path class="cls-52" d="M292,569.89H273.63a.94.94,0,1,1,0-1.88H292a.94.94,0,1,1,0,1.88Z"/>
          </g>
        </g>
        <g id="BedroomHeaterUp">
          <rect class="cls-51" x="267.15" y="510.89" width="30.97" height="30.97" rx="5.67"/>
          <g>
            <path class="cls-52" d="M292,542.8H273.25a7.05,7.05,0,0,1-7-7V517a7,7,0,0,1,7-7H292a7,7,0,0,1,7,7v18.78A7,7,0,0,1,292,542.8Zm-18.78-31a5.16,5.16,0,0,0-5.16,5.15v18.78a5.16,5.16,0,0,0,5.16,5.16H292a5.16,5.16,0,0,0,5.15-5.16V517a5.16,5.16,0,0,0-5.15-5.15Z"/>
            <path class="cls-52" d="M292.94,526.37a1,1,0,0,1-.95,1h-8.24v8.24a.94.94,0,1,1-1.88,0v-8.24h-8.24a1,1,0,0,1-.94-1,.94.94,0,0,1,.94-.93h8.24v-8.25a.94.94,0,0,1,1.88,0v8.25H292A1,1,0,0,1,292.94,526.37Z"/>
          </g>
        </g>
        <circle id="BedroomHeaterTank" class="cls-46" cx="376.84" cy="509.31" r="6.61"/>
        <path id="BedroomHeaterArrow" class="cls-20" d="M432.5,453.27l-.13.07c-.75.32-1.51.62-2.27.91h0c-26.93,10.35-56.44,6.06-75.46-10.52-5.25-4.58-10.47-10.28-13.15-16.7-1.84,1-3.65,1.91-5.41,3a1,1,0,0,1-1.46-.46c-1.3-4.91-1.5-10.22-2-15.32s-1.1-10.45-1.62-15.68a1.17,1.17,0,0,1,1.8-1.08c9.37,6.11,18.59,12.37,27.44,19.09.5.37.27,1.16-.29,1.51-2.44,1.57-4.94,3.07-7.5,4.45,4.17,6,8.1,11.88,13.89,16.72a62.78,62.78,0,0,0,19.26,11,72.83,72.83,0,0,0,22,4.12,99.66,99.66,0,0,0,11.94-.43c4.14-.37,8.63-.19,12.73-1.4h0A.38.38,0,1,1,432.5,453.27Zm-12.11,2.2a104.43,104.43,0,0,1-12.95.67,75.54,75.54,0,0,1-22.2-3.88,64,64,0,0,1-20.53-11.41c-6-5-11.81-11.33-14.52-18.61a.71.71,0,0,1,.56-.9l.14-.09c2.33-1.22,4.6-2.5,6.84-3.88-7.9-6-16-11.73-24.48-17,.88,9.16,1.22,18.63,3.08,27.53a25.07,25.07,0,0,1,5.86-2.39.57.57,0,0,1,.64.23.71.71,0,0,1,.15.15c2.38,3.5,4.41,7.12,7.18,10.35a60.85,60.85,0,0,0,8.79,8.4,64.14,64.14,0,0,0,22.6,11.21c13.32,3.6,28.14,3.23,42.41-.61C422.74,455.29,421.54,455.35,420.39,455.47Z"/>
      </g>
      <g id="MainHeater">
        <g>
          <path class="cls-50" d="M1029.68,106.66H939a2.36,2.36,0,0,1-2.36-2.36v-78A2.36,2.36,0,0,1,939,24h90.73a41.35,41.35,0,1,1,0,82.7Z"/>
          <path class="cls-51" d="M1029.68,106.85H939a2.55,2.55,0,0,1-2.55-2.55v-78A2.55,2.55,0,0,1,939,23.77h90.73a41.54,41.54,0,0,1,0,83.08ZM939,24.14a2.17,2.17,0,0,0-2.17,2.17v78a2.17,2.17,0,0,0,2.17,2.17h90.73a41.17,41.17,0,1,0,0-82.33Z"/>
        </g>
        <circle id="MainHeaterStatus" class="cls-41" cx="1029.5" cy="65.31" r="36.77"/>
        <g>
          <circle class="cls-42" cx="1029.5" cy="65.31" r="34.14"/>
          <g>
            <path class="cls-20" d="M1032.27,63c1.77-1.63,8.75-9.19,8.2-16.33-.47-6.05-7-7.87-10.88-7.87s-9.94,1.82-10.41,7.87c-.54,7,5.46,13.95,7.41,15.76a3.94,3.94,0,0,1,2.91-1A3.82,3.82,0,0,1,1032.27,63Z"/>
            <path class="cls-20" d="M1025.61,65.31a4.42,4.42,0,0,1,.7-1.92c-2.55-.78-11.33-1.44-17.11,2.52-5,3.43-4.22,8.56-2.29,11.92s6.55,8,12,5.41c5.83-2.78,8.93-10.59,9.77-13.9A3.92,3.92,0,0,1,1025.61,65.31Z"/>
            <path class="cls-20" d="M1050,65.34c-5.72-3.93-14.18-2.64-16.82-1.84a4.08,4.08,0,0,1,.42,1.81c0,2-1.67,3.23-3.58,3.58.81,3.22,3.9,11.42,9.8,14.24,5.47,2.62,10.31-1.84,12.25-5.2S1055,68.77,1050,65.34Z"/>
            <path class="cls-20" d="M1029.5,31.16a34.15,34.15,0,1,0,34.14,34.15A34.19,34.19,0,0,0,1029.5,31.16Zm0,64.63A30.49,30.49,0,1,1,1060,65.31,30.52,30.52,0,0,1,1029.5,95.79Z"/>
          </g>
        </g>
        <g id="MainHeaterDown">
          <rect class="cls-51" x="941.92" y="71.11" width="30.97" height="30.97" rx="5.67"/>
          <g>
            <path class="cls-52" d="M966.79,103H948a7,7,0,0,1-7-7V77.2a7,7,0,0,1,7-7h18.78a7,7,0,0,1,7,7V96A7.05,7.05,0,0,1,966.79,103ZM948,72.05a5.16,5.16,0,0,0-5.15,5.15V96a5.16,5.16,0,0,0,5.15,5.16h18.78A5.17,5.17,0,0,0,972,96V77.2a5.16,5.16,0,0,0-5.16-5.15Z"/>
            <path class="cls-52" d="M966.76,87.53H948.39a.94.94,0,1,1,0-1.88h18.37a.94.94,0,1,1,0,1.88Z"/>
          </g>
        </g>
        <g id="MainHeaterUp">
          <rect class="cls-51" x="941.92" y="28.53" width="30.97" height="30.97" rx="5.67"/>
          <g>
            <path class="cls-52" d="M966.79,60.45H948a7,7,0,0,1-7-7V34.63a7,7,0,0,1,7-7h18.78a7.05,7.05,0,0,1,7,7V53.41A7.05,7.05,0,0,1,966.79,60.45ZM948,29.47a5.16,5.16,0,0,0-5.15,5.16V53.41A5.16,5.16,0,0,0,948,58.56h18.78A5.16,5.16,0,0,0,972,53.41V34.63a5.17,5.17,0,0,0-5.16-5.16Z"/>
            <path class="cls-52" d="M967.7,44a1,1,0,0,1-1,.95h-8.23V53.2a.94.94,0,1,1-1.88,0V45h-8.25a.95.95,0,0,1,0-1.89h8.25V34.84a.94.94,0,1,1,1.88,0v8.24h8.23A.94.94,0,0,1,967.7,44Z"/>
          </g>
        </g>
        <path id="MainHeaterArrow" class="cls-20" d="M1089.85,174.07l.06.13c.23.79.45,1.58.67,2.36a0,0,0,0,1,0,0c7.53,27.85.22,56.76-18.22,74-5.09,4.75-11.3,9.36-18,11.37.76,1.92,1.53,3.82,2.46,5.69a1,1,0,0,1-.6,1.4c-5,.79-10.32.45-15.45.44s-10.5,0-15.76,0a1.17,1.17,0,0,1-.89-1.9c7-8.69,14.22-17.22,21.81-25.34.42-.45,1.18-.14,1.47.45,1.31,2.59,2.54,5.23,3.65,7.92,6.43-3.54,12.66-6.84,18.06-12.1a63.08,63.08,0,0,0,12.89-18A72.88,72.88,0,0,0,1088.4,199a98,98,0,0,0,.8-11.91c.06-4.16.7-8.61-.09-12.81v0A.38.38,0,0,1,1089.85,174.07Zm.94,12.27a103.05,103.05,0,0,1-.66,12.95A75.68,75.68,0,0,1,1084,221a64,64,0,0,1-13.45,19.24c-5.58,5.42-12.49,10.6-20,12.54-.44.11-.75-.24-.84-.65a1.07,1.07,0,0,1-.07-.15c-1-2.44-2-4.83-3.16-7.2-6.75,7.24-13.32,14.73-19.47,22.6,9.21.06,18.66.7,27.71-.24a24.42,24.42,0,0,1-1.77-6.07.54.54,0,0,1,.29-.61.48.48,0,0,1,.16-.13c3.73-2,7.53-3.67,11-6.08a61.21,61.21,0,0,0,9.25-7.88A64.21,64.21,0,0,0,1087.14,225c5-12.87,6.11-27.66,3.75-42.25C1090.85,184,1090.8,185.19,1090.79,186.34Z"/>
        <circle id="MainHeaterTank" class="cls-46" cx="1051.67" cy="27.41" r="6.61"/>
      </g>
    </g>
    <g id="Lights_ON" data-name="Lights ON">
      <g id="LightsBedroom" class="cls-53">
        <rect class="cls-41" x="161.09" y="149.37" width="93.12" height="313.44"/>
      </g>
      <g id="LightsBedroomMain" class="cls-53">
        <circle class="cls-41" cx="322.44" cy="306.09" r="90.85"/>
      </g>
      <g id="LightsBath" class="cls-53">
        <rect class="cls-41" x="384.84" y="147.55" width="262.44" height="130.52"/>
      </g>
      <g id="LightsCoridor" class="cls-53">
        <rect class="cls-41" x="429.05" y="280.34" width="165.61" height="78.77"/>
      </g>
      <g id="LightsKitchen" class="cls-53">
        <rect class="cls-41" x="652.62" y="387.6" width="204.74" height="80.26"/>
      </g>
      <g id="LightsLeftPassanger" class="cls-53">
        <rect class="cls-41" x="741.49" y="145.31" width="204.53" height="79.55"/>
      </g>
      <g id="LightsRightPassanger" class="cls-53">
        <rect class="cls-41" x="913.51" y="387.6" width="231.5" height="80.26"/>
      </g>
      <g id="LightsSalon2" class="cls-53">
        <circle class="cls-41" cx="742.3" cy="309.37" r="95.79"/>
      </g>
      <g id="LightsSalon1" class="cls-53">
        <circle class="cls-41" cx="958.24" cy="306.09" r="93.42"/>
      </g>
      <g id="LightsOutside" class="cls-53">
        <polygon class="cls-41" points="1195.29 563.5 1017.12 591.54 1017.12 481.75 1195.29 481.75 1195.29 563.5"/>
      </g>
      <g id="LightsNeon" class="cls-53">
        <rect class="cls-41" x="1068.11" y="285.15" width="102.86" height="45.69"/>
      </g>
    </g>
    <g id="Temp">
      <g id="Temp4">
        <rect class="cls-40" x="301.18" y="149.37" width="71.41" height="44.08" rx="5.67"/>
        <text id="TempBedroom" class="cls-45" transform="translate(309.47 183.3)">21</text>
        <path class="cls-43" d="M356,163.42a5.29,5.29,0,1,1,10.57,0,5.27,5.27,0,0,1-5.29,5.28,5.22,5.22,0,0,1-5.28-5.28Zm1.95,0a3.18,3.18,0,0,0,1,2.36,3.29,3.29,0,0,0,2.37,1,3.23,3.23,0,0,0,2.34-1,3.19,3.19,0,0,0,1-2.37,3.25,3.25,0,0,0-1-2.39,3.19,3.19,0,0,0-2.35-1,3.31,3.31,0,0,0-2.39,1A3.23,3.23,0,0,0,358,163.42Z"/>
      </g>
      <g id="Temp3">
        <rect class="cls-40" x="387.8" y="149.37" width="71.41" height="44.08" rx="5.67"/>
        <text id="TempBathroom" class="cls-45" transform="translate(395.63 183.3)">22</text>
        <path class="cls-43" d="M443.3,163.42a5.29,5.29,0,1,1,10.57,0,5.27,5.27,0,0,1-5.29,5.28,5.22,5.22,0,0,1-5.28-5.28Zm1.95,0a3.18,3.18,0,0,0,1,2.36,3.29,3.29,0,0,0,2.37,1,3.3,3.3,0,0,0,3.31-3.33,3.25,3.25,0,0,0-1-2.39,3.19,3.19,0,0,0-2.35-1,3.27,3.27,0,0,0-2.38,1A3.2,3.2,0,0,0,445.25,163.42Z"/>
      </g>
      <g id="Temp2">
        <rect class="cls-40" x="671.44" y="149.37" width="71.41" height="44.08" rx="5.67"/>
        <text id="TempSalon" class="cls-45" transform="translate(679.73 183.3)">19</text>
        <path class="cls-43" d="M727.57,163.42a5.29,5.29,0,1,1,10.58,0,5.26,5.26,0,0,1-.7,2.64,5.21,5.21,0,0,1-1.94,1.93,5.27,5.27,0,0,1-2.66.71,5.22,5.22,0,0,1-5.28-5.28Zm1.95,0a3.18,3.18,0,0,0,1,2.36,3.31,3.31,0,0,0,2.37,1,3.3,3.3,0,0,0,3.31-3.33,3.25,3.25,0,0,0-1-2.39,3.19,3.19,0,0,0-2.35-1,3.27,3.27,0,0,0-2.38,1A3.2,3.2,0,0,0,729.52,163.42Z"/>
      </g>
      <g id="Temp1">
        <rect class="cls-40" x="671.44" y="43.27" width="71.41" height="44.08" rx="5.67"/>
        <text id="TempOutside" class="cls-45" transform="translate(678.66 77.2)">15</text>
        <path class="cls-43" d="M727.57,56.07a5.29,5.29,0,1,1,10.58,0,5.24,5.24,0,0,1-.7,2.64,5.28,5.28,0,0,1-9.88-2.64Zm1.95,0a3.16,3.16,0,0,0,1,2.36,3.27,3.27,0,0,0,2.37,1,3.34,3.34,0,1,0-2.38-5.7A3.16,3.16,0,0,0,729.52,56.07Z"/>
      </g>
    </g>
  </g>
</svg>
